<svg width="580" height="112" viewBox="0 0 580 112" fill="none" xmlns="http://www.w3.org/2000/svg">
<path fill-rule="evenodd" clip-rule="evenodd" d="M6.01522 23.2423L0.222168 25.2314L6.01523 27.2206C13.8913 29.925 20.0788 36.1125 22.7833 43.9886L24.7724 49.7817L26.7616 43.9886C29.466 36.1125 35.6535 29.925 43.5296 27.2206L49.3227 25.2314L43.5296 23.2423C35.6535 20.5378 29.466 14.3503 26.7616 6.47421L24.7724 0.681152L22.7833 6.47421C20.0788 14.3503 13.8913 20.5378 6.01522 23.2423ZM327.21 89.0628C329.498 89.0628 331.752 88.8895 333.97 88.5428V76.7908C332.653 76.9988 331.44 77.1028 330.33 77.1028C327.002 77.1028 324.576 76.3401 323.05 74.8148C321.525 73.2895 320.762 71.1055 320.762 68.2628V44.0308H333.762V31.8628H320.762V18.9668H307.138V23.3348C307.138 26.1081 306.376 28.2228 304.85 29.6788C303.325 31.1348 301.176 31.9587 298.402 31.9587H297.564H297.362H294.236L293.938 31.9585L293.544 31.9578C290.362 31.9519 287.542 31.9466 285.084 33.1108C282.45 34.3588 280.404 36.6121 278.948 39.8708V31.8628H266.156V88.4388H279.78V56.9268C279.78 52.6281 280.959 49.3001 283.316 46.9428C285.743 44.5161 288.863 44.0227 292.676 44.0227H297.362V44.0308H307.138V68.9908C307.138 75.3001 308.872 80.2228 312.338 83.7588C315.874 87.2948 320.832 89.0628 327.21 89.0628ZM59.4174 89.6868C65.172 89.6868 70.1987 88.4041 74.4974 85.8388C78.8654 83.2041 81.916 79.8761 83.6494 75.8548L72.6254 70.4468C71.3774 72.5961 69.644 74.3641 67.4254 75.7508C65.276 77.0681 62.6414 77.7268 59.5214 77.7268C55.4307 77.7268 51.9987 76.4788 49.2254 73.9828C46.452 71.4868 44.8574 68.1588 44.4414 63.9988H85.2094C85.4867 63.2361 85.66 62.3695 85.7294 61.3988C85.868 60.3588 85.9374 59.3188 85.9374 58.2788C85.9374 53.2175 84.8627 48.6068 82.7134 44.4468C80.564 40.2868 77.444 36.9588 73.3534 34.4628C69.2627 31.8975 64.2707 30.6148 58.3774 30.6148C53.108 30.6148 48.324 31.8975 44.0254 34.4628C39.796 37.0281 36.4334 40.5295 33.9374 44.9668C31.5107 49.3348 30.2974 54.3615 30.2974 60.0468C30.2974 65.5241 31.5107 70.5161 33.9374 75.0228C36.364 79.5295 39.7614 83.1001 44.1294 85.7348C48.4974 88.3695 53.5934 89.6868 59.4174 89.6868ZM58.3774 41.8468C61.9827 41.8468 64.964 42.9561 67.3214 45.1748C69.748 47.3241 71.1 50.1321 71.3774 53.5988H44.7534C45.516 49.8548 47.1107 46.9775 49.5374 44.9668C52.0334 42.8868 54.98 41.8468 58.3774 41.8468ZM82.9934 88.4388H99.0094L110.865 70.8628L122.617 88.4388H138.529L118.873 60.0468L138.633 31.8628H122.721L110.865 49.4388L98.9054 31.8628H82.8894L102.753 60.0468L82.9934 88.4388ZM155.546 109.239H141.922V31.8628H154.714V38.5188C156.724 36.0228 159.29 34.0815 162.41 32.6948C165.53 31.3081 169.031 30.6148 172.914 30.6148C178.322 30.6148 183.175 31.9321 187.474 34.5668C191.772 37.1321 195.17 40.6681 197.666 45.1748C200.162 49.6121 201.41 54.6041 201.41 60.1508C201.41 65.6975 200.162 70.7241 197.666 75.2308C195.17 79.6681 191.772 83.2041 187.474 85.8388C183.175 88.4041 178.287 89.6868 172.81 89.6868C169.343 89.6868 166.119 89.1321 163.138 88.0228C160.156 86.8441 157.626 85.1801 155.546 83.0308V109.239ZM163.138 75.0228C165.564 76.4788 168.268 77.2068 171.25 77.2068C174.37 77.2068 177.108 76.4788 179.466 75.0228C181.892 73.5668 183.799 71.5561 185.186 68.9908C186.572 66.3561 187.266 63.4095 187.266 60.1508C187.266 56.8921 186.572 53.9801 185.186 51.4148C183.799 48.8495 181.892 46.8388 179.466 45.3828C177.108 43.8575 174.37 43.0948 171.25 43.0948C168.268 43.0948 165.564 43.8228 163.138 45.2788C160.78 46.7348 158.908 48.7455 157.522 51.3108C156.204 53.8761 155.546 56.8228 155.546 60.1508C155.546 63.4788 156.204 66.4255 157.522 68.9908C158.908 71.5561 160.78 73.5668 163.138 75.0228ZM234.469 89.6868C240.223 89.6868 245.25 88.4041 249.549 85.8388C253.917 83.2041 256.967 79.8761 258.701 75.8548L247.677 70.4468C246.429 72.5961 244.695 74.3641 242.477 75.7508C240.327 77.0681 237.693 77.7268 234.573 77.7268C230.482 77.7268 227.05 76.4788 224.277 73.9828C221.503 71.4868 219.909 68.1588 219.493 63.9988H260.261C260.538 63.2361 260.711 62.3695 260.781 61.3988C260.919 60.3588 260.989 59.3188 260.989 58.2788C260.989 53.2175 259.914 48.6068 257.765 44.4468C255.615 40.2868 252.495 36.9588 248.405 34.4628C244.314 31.8975 239.322 30.6148 233.429 30.6148C228.159 30.6148 223.375 31.8975 219.077 34.4628C214.847 37.0281 211.485 40.5295 208.989 44.9668C206.562 49.3348 205.349 54.3615 205.349 60.0468C205.349 65.5241 206.562 70.5161 208.989 75.0228C211.415 79.5295 214.813 83.1001 219.181 85.7348C223.549 88.3695 228.645 89.6868 234.469 89.6868ZM233.429 41.8468C237.034 41.8468 240.015 42.9561 242.373 45.1748C244.799 47.3241 246.151 50.1321 246.429 53.5988H219.805C220.567 49.8548 222.162 46.9775 224.589 44.9668C227.085 42.8868 230.031 41.8468 233.429 41.8468ZM340.859 109.239H354.483V83.0309C356.563 85.1802 359.094 86.8442 362.075 88.0229C365.056 89.1322 368.28 89.6869 371.747 89.6869C377.224 89.6869 382.112 88.4042 386.411 85.8389C390.71 83.2042 394.107 79.6682 396.603 75.2309C399.099 70.7242 400.347 65.6976 400.347 60.1509C400.347 54.6042 399.099 49.6122 396.603 45.1749C394.107 40.6682 390.71 37.1322 386.411 34.5669C382.112 31.9322 377.259 30.6149 371.851 30.6149C367.968 30.6149 364.467 31.3082 361.347 32.6949C358.227 34.0816 355.662 36.0229 353.651 38.5189V31.8629H340.859V109.239ZM370.187 77.2069C367.206 77.2069 364.502 76.4789 362.075 75.0229C359.718 73.5669 357.846 71.5562 356.459 68.9909C355.142 66.4256 354.483 63.4789 354.483 60.1509C354.483 56.8229 355.142 53.8762 356.459 51.3109C357.846 48.7456 359.718 46.7349 362.075 45.2789C364.502 43.8229 367.206 43.0949 370.187 43.0949C373.307 43.0949 376.046 43.8576 378.403 45.3829C380.83 46.8389 382.736 48.8496 384.123 51.4149C385.51 53.9802 386.203 56.8922 386.203 60.1509C386.203 63.4096 385.51 66.3562 384.123 68.9909C382.736 71.5562 380.83 73.5669 378.403 75.0229C376.046 76.4789 373.307 77.2069 370.187 77.2069ZM423.734 89.6869C431.083 89.6869 436.977 87.2602 441.414 82.4069V88.4389H454.31V50.7909C454.31 46.8389 453.305 43.3376 451.294 40.2869C449.283 37.2362 446.51 34.8789 442.974 33.2149C439.507 31.4816 435.451 30.6149 430.806 30.6149C425.121 30.6149 420.059 31.9669 415.622 34.6709C411.185 37.3749 408.134 40.9456 406.47 45.3829L417.598 50.7909C418.638 48.2256 420.267 46.1802 422.486 44.6549C424.705 43.0602 427.305 42.2629 430.286 42.2629C433.406 42.2629 435.902 43.0949 437.774 44.7589C439.715 46.3536 440.686 48.3642 440.686 50.7909V52.6629L423.838 55.3669C417.182 56.4762 412.259 58.5909 409.07 61.7109C405.881 64.8309 404.286 68.7482 404.286 73.4629C404.286 78.4549 406.054 82.4069 409.59 85.3189C413.126 88.2309 417.841 89.6869 423.734 89.6869ZM418.43 72.9429C418.43 68.9909 421.099 66.4949 426.438 65.4549L440.686 63.0629V65.3509C440.686 69.2336 439.334 72.5269 436.63 75.2309C433.995 77.9349 430.529 79.2869 426.23 79.2869C423.942 79.2869 422.07 78.7322 420.614 77.6229C419.158 76.4442 418.43 74.8842 418.43 72.9429ZM504.55 107.991C500.39 110.21 495.606 111.319 490.198 111.319C483.819 111.319 478.203 109.794 473.35 106.743C468.566 103.762 465.273 99.7749 463.47 94.7829L476.158 89.9989C476.99 92.6336 478.619 94.7482 481.046 96.3429C483.542 98.0069 486.593 98.8389 490.198 98.8389C494.289 98.8389 497.651 97.6602 500.286 95.3029C502.921 93.0149 504.238 89.7909 504.238 85.6309V79.4949C500.217 83.9322 494.774 86.1509 487.91 86.1509C482.641 86.1509 477.926 84.9376 473.766 82.5109C469.606 80.0842 466.347 76.7562 463.99 72.5269C461.633 68.2976 460.454 63.5482 460.454 58.2789C460.454 52.9402 461.633 48.1909 463.99 44.0309C466.347 39.8709 469.571 36.6122 473.662 34.2549C477.753 31.8282 482.398 30.6149 487.598 30.6149C494.878 30.6149 500.667 33.2149 504.966 38.4149V31.8629H517.862V85.6309C517.862 90.5536 516.683 94.9562 514.326 98.8389C511.969 102.722 508.71 105.772 504.55 107.991ZM478.758 69.3029C481.601 72.1456 485.206 73.5669 489.574 73.5669C493.873 73.5669 497.374 72.1456 500.078 69.3029C502.851 66.4602 504.238 62.8202 504.238 58.3829C504.238 53.9456 502.851 50.3056 500.078 47.4629C497.374 44.5509 493.873 43.0949 489.574 43.0949C486.731 43.0949 484.166 43.7536 481.878 45.0709C479.59 46.3882 477.787 48.2256 476.47 50.5829C475.222 52.8709 474.598 55.4709 474.598 58.3829C474.598 62.7509 475.985 66.3909 478.758 69.3029ZM553.258 89.6869C559.012 89.6869 564.039 88.4042 568.338 85.8389C572.706 83.2042 575.756 79.8762 577.49 75.8549L566.466 70.4469C565.218 72.5962 563.484 74.3642 561.266 75.7509C559.116 77.0682 556.482 77.7269 553.362 77.7269C549.271 77.7269 545.839 76.4789 543.066 73.9829C540.292 71.4869 538.698 68.1589 538.282 63.9989H579.05C579.327 63.2362 579.5 62.3696 579.57 61.3989C579.708 60.3589 579.778 59.3189 579.778 58.2789C579.778 53.2176 578.703 48.6069 576.554 44.4469C574.404 40.2869 571.284 36.9589 567.194 34.4629C563.103 31.8976 558.111 30.6149 552.218 30.6149C546.948 30.6149 542.164 31.8976 537.866 34.4629C533.636 37.0282 530.274 40.5296 527.778 44.9669C525.351 49.3349 524.138 54.3616 524.138 60.0469C524.138 65.5242 525.351 70.5162 527.778 75.0229C530.204 79.5296 533.602 83.1002 537.97 85.7349C542.338 88.3696 547.434 89.6869 553.258 89.6869ZM552.218 41.8469C555.823 41.8469 558.804 42.9562 561.162 45.1749C563.588 47.3242 564.94 50.1322 565.218 53.5989H538.594C539.356 49.8549 540.951 46.9776 543.378 44.9669C545.874 42.8869 548.82 41.8469 552.218 41.8469Z" fill="#1F2430"/>
</svg>
