<svg width="96" height="96" viewBox="0 0 96 96" fill="none" xmlns="http://www.w3.org/2000/svg">
<path fill-rule="evenodd" clip-rule="evenodd" d="M10.9354 26.0583L5.14233 28.0475L10.9354 30.0366C18.8115 32.741 24.999 38.9285 27.7034 46.8047L29.6926 52.5977L31.6818 46.8047C34.3862 38.9285 40.5737 32.741 48.4498 30.0366L54.2429 28.0475L48.4498 26.0583C40.5737 23.3539 34.3862 17.1664 31.6818 9.29025L29.6926 3.49719L27.7034 9.29025C24.999 17.1664 18.8115 23.3539 10.9354 26.0583ZM79.4175 88.6548C75.1189 91.2202 70.0922 92.5028 64.3375 92.5028C58.5135 92.5028 53.4175 91.1855 49.0495 88.5508C44.6815 85.9162 41.2842 82.3455 38.8575 77.8388C36.4309 73.3322 35.2175 68.3402 35.2175 62.8628C35.2175 57.1775 36.4309 52.1508 38.8575 47.7828C41.3535 43.3455 44.7162 39.8442 48.9455 37.2788C53.2442 34.7135 58.0282 33.4308 63.2975 33.4308C69.1909 33.4308 74.1829 34.7135 78.2735 37.2788C82.3642 39.7748 85.4842 43.1028 87.6335 47.2628C89.7829 51.4228 90.8575 56.0335 90.8575 61.0948C90.8575 62.1348 90.7882 63.1748 90.6495 64.2148C90.5802 65.1855 90.4069 66.0522 90.1295 66.8148H49.3615C49.7775 70.9748 51.3722 74.3028 54.1455 76.7988C56.9189 79.2948 60.3509 80.5428 64.4415 80.5428C67.5615 80.5428 70.1962 79.8842 72.3455 78.5668C74.5642 77.1802 76.2975 75.4122 77.5455 73.2628L88.5695 78.6708C86.8362 82.6922 83.7855 86.0202 79.4175 88.6548ZM72.2415 47.9908C69.8842 45.7722 66.9029 44.6628 63.2975 44.6628C59.9002 44.6628 56.9535 45.7028 54.4575 47.7828C52.0309 49.7935 50.4362 52.6708 49.6735 56.4148H76.2975C76.0202 52.9482 74.6682 50.1402 72.2415 47.9908Z" fill="#1F2430 "/>
</svg>
