<svg width="219" height="48" viewBox="0 0 88 88" fill="none" xmlns="http://www.w3.org/2000/svg">
<path fill-rule="evenodd" clip-rule="evenodd" d="M79.2729 9.524C80.3402 8.45672 80.3402 6.72632 79.2729 5.65903C78.2056 4.59175 76.4752 4.59175 75.4079 5.65903C74.3406 6.72632 74.3406 8.45672 75.4079 9.524C76.4752 10.5913 78.2056 10.5913 79.2729 9.524ZM82.7084 12.9595C85.6731 9.99486 85.6731 5.18818 82.7084 2.2235C79.7437 -0.741168 74.9371 -0.741168 71.9724 2.2235C69.0077 5.18818 69.0077 9.99486 71.9724 12.9595C74.9371 15.9242 79.7437 15.9242 82.7084 12.9595ZM2.13456 22.6756C-0.711522 19.8295 -0.711521 15.2151 2.13456 12.369L8.14674 6.35685C10.9928 3.51077 15.6072 3.51077 18.4533 6.35685L43.3609 31.2644L59.0355 15.5898C61.8816 12.7438 66.496 12.7438 69.3421 15.5898C72.1882 18.4359 72.1882 23.0503 69.3421 25.8964L55.3853 39.8533C52.5392 42.6993 47.9248 42.6993 45.0787 39.8533L43.3609 38.1355L35.631 45.8654C32.7849 48.7115 28.1705 48.7115 25.3244 45.8654L2.13456 22.6756ZM39.9254 34.7L15.0178 9.79238C14.0691 8.84369 12.531 8.84369 11.5823 9.79238L5.57009 15.8046C4.6214 16.7533 4.6214 18.2914 5.57009 19.2401L28.7599 42.4299C29.7086 43.3786 31.2467 43.3786 32.1954 42.4299L39.9254 34.7ZM46.7964 34.7L48.5142 36.4177C49.4629 37.3664 51.001 37.3664 51.9497 36.4177L65.9066 22.4609C66.8553 21.5122 66.8553 19.9741 65.9066 19.0254C64.9579 18.0767 63.4197 18.0767 62.471 19.0254L46.7964 34.7ZM192.334 38H196.788V12.262H192.334V38ZM115.518 38L124.324 12.67H119.292L112.866 32.152L106.406 12.67H101.374L110.214 38H115.518ZM127.281 17.43H131.735V12.67H127.281V17.43ZM127.281 38H131.735V19.504H127.281V38ZM146.989 38.034C146.264 38.1473 145.527 38.204 144.779 38.204C142.694 38.204 141.073 37.626 139.917 36.47C138.784 35.314 138.217 33.7046 138.217 31.642V23.482H135.021V19.504H135.361C136.268 19.504 136.971 19.266 137.469 18.79C137.968 18.314 138.217 17.6226 138.217 16.716V15.288H142.671V19.504H146.921V23.482H142.671V31.404C142.671 32.3333 142.921 33.0473 143.419 33.546C143.918 34.0446 144.711 34.294 145.799 34.294C146.162 34.294 146.559 34.26 146.989 34.192V38.034ZM156.403 38.408C158.805 38.408 160.732 37.6146 162.183 36.028V38H166.399V25.692C166.399 24.4 166.07 23.2553 165.413 22.258C164.755 21.2606 163.849 20.49 162.693 19.946C161.559 19.3793 160.233 19.096 158.715 19.096C156.856 19.096 155.201 19.538 153.751 20.422C152.3 21.306 151.303 22.4733 150.759 23.924L154.397 25.692C154.737 24.8533 155.269 24.1846 155.995 23.686C156.72 23.1646 157.57 22.904 158.545 22.904C159.565 22.904 160.381 23.176 160.993 23.72C161.627 24.2413 161.945 24.8986 161.945 25.692V26.304L156.437 27.188C154.261 27.5506 152.651 28.242 151.609 29.262C150.566 30.282 150.045 31.5626 150.045 33.104C150.045 34.736 150.623 36.028 151.779 36.98C152.935 37.932 154.476 38.408 156.403 38.408ZM154.669 32.934C154.669 31.642 155.541 30.826 157.287 30.486L161.945 29.704V30.452C161.945 31.7213 161.503 32.798 160.619 33.682C159.757 34.566 158.624 35.008 157.219 35.008C156.471 35.008 155.859 34.8266 155.383 34.464C154.907 34.0786 154.669 33.5686 154.669 32.934ZM184.717 37.15C183.312 37.9886 181.669 38.408 179.787 38.408C177.883 38.408 176.217 37.9773 174.789 37.116C173.361 36.2546 172.251 35.0873 171.457 33.614C170.664 32.1406 170.267 30.5086 170.267 28.718C170.267 26.8593 170.664 25.216 171.457 23.788C172.273 22.3373 173.373 21.1926 174.755 20.354C176.161 19.5153 177.725 19.096 179.447 19.096C181.374 19.096 183.006 19.5153 184.343 20.354C185.681 21.17 186.701 22.258 187.403 23.618C188.106 24.978 188.457 26.4853 188.457 28.14C188.457 28.48 188.435 28.82 188.389 29.16C188.367 29.4773 188.31 29.7606 188.219 30.01H174.891C175.027 31.37 175.549 32.458 176.455 33.274C177.362 34.09 178.484 34.498 179.821 34.498C180.841 34.498 181.703 34.2826 182.405 33.852C183.131 33.3986 183.697 32.8206 184.105 32.118L187.709 33.886C187.143 35.2006 186.145 36.2886 184.717 37.15ZM182.371 23.856C181.601 23.1306 180.626 22.768 179.447 22.768C178.337 22.768 177.373 23.108 176.557 23.788C175.764 24.4453 175.243 25.386 174.993 26.61H183.697C183.607 25.4766 183.165 24.5586 182.371 23.856ZM207.996 44.018C206.84 45.0153 205.39 45.514 203.644 45.514C203.146 45.514 202.658 45.4686 202.182 45.378C201.706 45.31 201.276 45.1853 200.89 45.004V41.264C201.208 41.3546 201.57 41.4226 201.978 41.468C202.386 41.536 202.772 41.57 203.134 41.57C204.154 41.57 204.891 41.332 205.344 40.856C205.82 40.38 206.24 39.7566 206.602 38.986L207.01 38L199.7 19.504H204.494L209.288 32.254L214.048 19.504H218.876L210.818 39.87C210.116 41.6606 209.175 43.0433 207.996 44.018Z" fill="#15121C"/>
</svg>
