<svg width="220" height="48" viewBox="0 0 220 48" fill="none" xmlns="http://www.w3.org/2000/svg">
<path fill-rule="evenodd" clip-rule="evenodd" d="M79.2729 5.65903C80.3402 6.72631 80.3402 8.45672 79.2729 9.524C78.2056 10.5913 76.4752 10.5913 75.4079 9.524C74.3406 8.45672 74.3406 6.72631 75.4079 5.65903C76.4752 4.59175 78.2056 4.59175 79.2729 5.65903ZM82.7084 2.2235C85.6731 5.18818 85.6731 9.99486 82.7084 12.9595C79.7437 15.9242 74.9371 15.9242 71.9724 12.9595C69.0077 9.99486 69.0077 5.18818 71.9724 2.2235C74.9371 -0.741168 79.7437 -0.741168 82.7084 2.2235ZM2.13456 12.369C-0.711521 15.2151 -0.711522 19.8295 2.13456 22.6756L25.3244 45.8654C28.1705 48.7115 32.7849 48.7115 35.631 45.8654L43.3609 38.1355L45.0787 39.8533C47.9248 42.6993 52.5392 42.6993 55.3853 39.8533L69.3421 25.8964C72.1882 23.0503 72.1882 18.4359 69.3421 15.5898C66.496 12.7437 61.8816 12.7437 59.0355 15.5898L43.3609 31.2644L18.4533 6.35685C15.6072 3.51077 10.9928 3.51077 8.14674 6.35685L2.13456 12.369ZM15.0178 9.79238L39.9254 34.7L32.1954 42.4299C31.2467 43.3786 29.7086 43.3786 28.7599 42.4299L5.57009 19.2401C4.6214 18.2914 4.6214 16.7532 5.57009 15.8046L11.5823 9.79238C12.531 8.84369 14.0691 8.84368 15.0178 9.79238ZM48.5142 36.4177L46.7964 34.7L62.471 19.0254C63.4197 18.0767 64.9579 18.0767 65.9066 19.0254C66.8553 19.9741 66.8553 21.5122 65.9066 22.4609L51.9497 36.4177C51.001 37.3664 49.4629 37.3664 48.5142 36.4177Z" fill="#15121c"/>
<path d="M110.146 38H115.45L124.256 12.67H119.224L112.798 32.152L106.338 12.67H101.306L110.146 38ZM127.213 17.43H131.667V12.67H127.213V17.43ZM127.213 38H131.667V19.504H127.213V38ZM144.711 38.204C145.459 38.204 146.196 38.1473 146.921 38.034V34.192C146.491 34.26 146.094 34.294 145.731 34.294C144.643 34.294 143.85 34.0447 143.351 33.546C142.853 33.0473 142.603 32.3333 142.603 31.404V23.482H146.853V19.504H142.603V15.288H138.149V16.716C138.149 17.6227 137.9 18.314 137.401 18.79C136.903 19.266 136.2 19.504 135.293 19.504H134.953V23.482H138.149V31.642C138.149 33.7047 138.716 35.314 139.849 36.47C141.005 37.626 142.626 38.204 144.711 38.204ZM156.335 38.408C158.737 38.408 160.664 37.6147 162.115 36.028V38H166.331V25.692C166.331 24.4 166.002 23.2553 165.345 22.258C164.687 21.2607 163.781 20.49 162.625 19.946C161.491 19.3793 160.165 19.096 158.647 19.096C156.788 19.096 155.133 19.538 153.683 20.422C152.232 21.306 151.235 22.4733 150.691 23.924L154.329 25.692C154.669 24.8533 155.201 24.1847 155.927 23.686C156.652 23.1647 157.502 22.904 158.477 22.904C159.497 22.904 160.313 23.176 160.925 23.72C161.559 24.2413 161.877 24.8987 161.877 25.692V26.304L156.369 27.188C154.193 27.5507 152.583 28.242 151.541 29.262C150.498 30.282 149.977 31.5627 149.977 33.104C149.977 34.736 150.555 36.028 151.711 36.98C152.867 37.932 154.408 38.408 156.335 38.408ZM154.601 32.934C154.601 31.642 155.473 30.826 157.219 30.486L161.877 29.704V30.452C161.877 31.7213 161.435 32.798 160.551 33.682C159.689 34.566 158.556 35.008 157.151 35.008C156.403 35.008 155.791 34.8267 155.315 34.464C154.839 34.0787 154.601 33.5687 154.601 32.934ZM179.719 38.408C181.601 38.408 183.244 37.9887 184.649 37.15C186.077 36.2887 187.075 35.2007 187.641 33.886L184.037 32.118C183.629 32.8207 183.063 33.3987 182.337 33.852C181.635 34.2827 180.773 34.498 179.753 34.498C178.416 34.498 177.294 34.09 176.387 33.274C175.481 32.458 174.959 31.37 174.823 30.01H188.151C188.242 29.7607 188.299 29.4773 188.321 29.16C188.367 28.82 188.389 28.48 188.389 28.14C188.389 26.4853 188.038 24.978 187.335 23.618C186.633 22.258 185.613 21.17 184.275 20.354C182.938 19.5153 181.306 19.096 179.379 19.096C177.657 19.096 176.093 19.5153 174.687 20.354C173.305 21.1927 172.205 22.3373 171.389 23.788C170.596 25.216 170.199 26.8593 170.199 28.718C170.199 30.5087 170.596 32.1407 171.389 33.614C172.183 35.0873 173.293 36.2547 174.721 37.116C176.149 37.9773 177.815 38.408 179.719 38.408ZM179.379 22.768C180.558 22.768 181.533 23.1307 182.303 23.856C183.097 24.5587 183.539 25.4767 183.629 26.61H174.925C175.175 25.386 175.696 24.4453 176.489 23.788C177.305 23.108 178.269 22.768 179.379 22.768ZM192.266 38H196.72V12.262H192.266V38ZM203.576 45.514C205.321 45.514 206.772 45.0153 207.928 44.018C209.107 43.0433 210.047 41.6607 210.75 39.87L218.808 19.504H213.98L209.22 32.254L204.426 19.504H199.632L206.942 38L206.534 38.986C206.171 39.7567 205.752 40.38 205.276 40.856C204.823 41.332 204.086 41.57 203.066 41.57C202.703 41.57 202.318 41.536 201.91 41.468C201.502 41.4227 201.139 41.3547 200.822 41.264V45.004C201.207 45.1853 201.638 45.31 202.114 45.378C202.59 45.4687 203.077 45.514 203.576 45.514Z" fill="#15121c"/>
</svg>
