<svg width="88" height="88" viewBox="0 0 88 88" fill="none" xmlns="http://www.w3.org/2000/svg">
<path fill-rule="evenodd" clip-rule="evenodd" d="M81.2729 25.659C82.3402 26.7263 82.3402 28.4567 81.2729 29.524C80.2056 30.5913 78.4752 30.5913 77.4079 29.524C76.3406 28.4567 76.3406 26.7263 77.4079 25.659C78.4752 24.5918 80.2056 24.5918 81.2729 25.659ZM84.7084 22.2235C87.6731 25.1882 87.6731 29.9949 84.7084 32.9595C81.7437 35.9242 76.9371 35.9242 73.9724 32.9595C71.0077 29.9949 71.0077 25.1882 73.9724 22.2235C76.9371 19.2588 81.7437 19.2588 84.7084 22.2235ZM4.13456 32.369C1.28848 35.2151 1.28848 39.8295 4.13456 42.6756L27.3244 65.8654C30.1705 68.7115 34.7849 68.7115 37.631 65.8654L45.3609 58.1355L47.0787 59.8533C49.9248 62.6993 54.5392 62.6993 57.3853 59.8533L71.3421 45.8964C74.1882 43.0503 74.1882 38.4359 71.3421 35.5898C68.496 32.7437 63.8816 32.7437 61.0355 35.5898L45.3609 51.2644L20.4533 26.3569C17.6072 23.5108 12.9928 23.5108 10.1467 26.3569L4.13456 32.369ZM17.0178 29.7924L41.9254 54.7L34.1954 62.4299C33.2467 63.3786 31.7086 63.3786 30.7599 62.4299L7.57009 39.2401C6.6214 38.2914 6.6214 36.7532 7.57009 35.8046L13.5823 29.7924C14.531 28.8437 16.0691 28.8437 17.0178 29.7924ZM50.5142 56.4177L48.7964 54.7L64.471 39.0254C65.4197 38.0767 66.9579 38.0767 67.9066 39.0254C68.8553 39.9741 68.8553 41.5122 67.9066 42.4609L53.9497 56.4177C53.001 57.3664 51.4629 57.3664 50.5142 56.4177Z" fill="#6839EF"/>
</svg>
