<svg width="85" height="48" viewBox="0 0 85 48" fill="none" xmlns="http://www.w3.org/2000/svg">
<path fill-rule="evenodd" clip-rule="evenodd" d="M79.2729 5.65903C80.3402 6.72631 80.3402 8.45672 79.2729 9.524C78.2056 10.5913 76.4752 10.5913 75.4079 9.524C74.3406 8.45672 74.3406 6.72631 75.4079 5.65903C76.4752 4.59175 78.2056 4.59175 79.2729 5.65903ZM82.7084 2.2235C85.6731 5.18818 85.6731 9.99486 82.7084 12.9595C79.7437 15.9242 74.9371 15.9242 71.9724 12.9595C69.0077 9.99486 69.0077 5.18818 71.9724 2.2235C74.9371 -0.741168 79.7437 -0.741168 82.7084 2.2235ZM2.13456 12.369C-0.711521 15.2151 -0.711522 19.8295 2.13456 22.6756L25.3244 45.8654C28.1705 48.7115 32.7849 48.7115 35.631 45.8654L43.3609 38.1355L45.0787 39.8533C47.9248 42.6993 52.5392 42.6993 55.3853 39.8533L69.3421 25.8964C72.1882 23.0503 72.1882 18.4359 69.3421 15.5898C66.496 12.7437 61.8816 12.7437 59.0355 15.5898L43.3609 31.2644L18.4533 6.35685C15.6072 3.51077 10.9928 3.51077 8.14674 6.35685L2.13456 12.369ZM15.0178 9.79238L39.9254 34.7L32.1954 42.4299C31.2467 43.3786 29.7086 43.3786 28.7599 42.4299L5.57009 19.2401C4.6214 18.2914 4.6214 16.7532 5.57009 15.8046L11.5823 9.79238C12.531 8.84369 14.0691 8.84368 15.0178 9.79238ZM48.5142 36.4177L46.7964 34.7L62.471 19.0254C63.4197 18.0767 64.9579 18.0767 65.9066 19.0254C66.8553 19.9741 66.8553 21.5122 65.9066 22.4609L51.9497 36.4177C51.001 37.3664 49.4629 37.3664 48.5142 36.4177Z" fill="#15121c"/>
</svg>
