<svg width="86" height="71" viewBox="0 0 86 71" fill="none" xmlns="http://www.w3.org/2000/svg">
<path fill-rule="evenodd" clip-rule="evenodd" d="M40.033 65.1146C45.2565 61.0862 50.0347 56.0219 53.8247 50.4828C54.2641 49.8511 54.8416 49.421 55.4098 49.5291C55.8434 49.6528 56.0707 50.3666 55.6575 50.9518C50.7029 58.1908 44.4207 64.5102 37.4836 69.2365C36.5943 69.848 36.0517 69.0983 36.2545 68.2909C37.825 62.5197 38.5977 56.8994 38.6023 51.6008C38.6017 51.0057 39.2643 50.2754 39.8191 50.1093C40.4363 49.9068 40.811 50.2842 40.8116 50.8792C40.8273 54.2948 40.4948 57.8641 39.8436 61.5165C41.4384 57.9778 42.8153 54.3989 43.9718 50.8361C46.8942 41.8583 48.4336 32.9569 48.5524 24.7088C48.6797 16.5167 47.3287 9.01433 44.5527 2.75183C44.0734 1.70322 45.959 -0.0431415 46.496 0.968917C48.1114 4.6476 49.2734 8.67465 49.9489 13.0403C51.1195 20.8105 50.8217 29.5406 49.0513 38.5882C47.3127 47.3221 44.3125 56.3214 40.033 65.1146Z" fill="black"/>
</svg>
