<svg width="51" height="66" viewBox="0 0 51 66" fill="none" xmlns="http://www.w3.org/2000/svg">
<path fill-rule="evenodd" clip-rule="evenodd" d="M16.0499 56.6644C17.9739 59.8719 21.2179 62.9115 25.203 62.8835C25.6976 62.8968 26.1867 62.5877 26.2717 61.9792C26.3286 61.5058 25.9942 60.9708 25.4996 60.9574C21.3977 60.9993 18.3556 57.3375 16.7621 53.9353C13.3639 46.7012 14.7876 38.1552 18.1438 30.7812C19.9048 26.9947 22.1252 23.4411 24.5168 20.0109C26.8887 16.6368 29.4605 13.4333 32.2323 10.4004C32.1184 10.7758 32.0009 11.1499 31.8834 11.524C31.7078 12.0831 31.5322 12.6421 31.3686 13.2057C30.0399 17.5614 28.6903 21.9674 27.3408 26.3734C27.1672 26.8604 27.3364 27.3906 27.8157 27.5731C28.2471 27.7373 28.8449 27.4991 29.0184 27.0121C29.4392 25.6585 29.8514 24.3089 30.2636 22.9593C30.6758 21.6097 31.088 20.2602 31.5087 18.9066C31.8671 17.704 32.2375 16.5059 32.6079 15.3078C32.9782 14.1097 33.3486 12.9116 33.707 11.7089C33.9086 11.087 34.0894 10.5154 34.2566 9.90948C34.4238 9.30359 34.5088 8.69547 34.2229 8.17907C33.7499 7.25588 32.6668 7.34093 31.7357 7.41405C31.609 7.424 31.4852 7.43373 31.366 7.44067L16.8977 8.21996C16.4175 8.24091 16.0513 8.85839 16.0351 9.43445C16.0876 9.97845 16.5254 10.2616 17.0399 10.2246C18.292 10.1482 19.5474 10.0803 20.8029 10.0125C22.0583 9.94467 23.3137 9.87683 24.5658 9.80043C25.8653 9.71656 27.1578 9.64988 28.4446 9.5835C29.1796 9.54558 29.9128 9.50776 30.6444 9.46688C27.4713 12.9547 24.5431 16.6471 21.9242 20.5685C17.1121 27.7675 13.0105 35.9357 12.9467 44.6201C12.8944 48.9109 13.9074 53.1117 16.0499 56.6644Z" fill="black"/>
</svg>
