<svg width="25" height="66" viewBox="0 0 25 66" fill="none" xmlns="http://www.w3.org/2000/svg">
<path fill-rule="evenodd" clip-rule="evenodd" d="M14.4305 19.8129C12.8913 12.3875 8.52364 4.96106 0.911125 2.15982C-0.455132 1.67955 0.343402 -0.377245 1.65996 0.143816C6.05867 1.77891 9.62917 4.85451 12.1735 8.61216C17.4627 16.4033 17.873 25.9966 17.4114 35.1843L17.4067 35.2759C16.9737 43.6294 16.5146 52.486 13.1305 60.4105C16.4445 58.1828 19.5244 55.6175 22.3345 52.7462C22.776 52.273 23.5143 52.4195 23.9116 52.9087C24.3089 53.398 24.2021 54.0799 23.7649 54.5075C19.7128 58.6689 15.1044 62.1454 10.1155 64.95C9.51094 65.2732 8.61791 64.8854 8.5532 64.1448C8.22363 59.0618 7.40251 54.0344 6.1296 49.1117C5.96448 48.5016 6.46656 47.8489 7.00621 47.7508C7.63789 47.6135 8.13144 48.0179 8.29656 48.628C9.33557 52.6461 10.0443 56.7318 10.4728 60.8637C12.4134 56.7229 13.4936 52.2727 14.099 47.7929C14.7465 43.1373 15.0314 38.459 15.2256 33.7751C15.4197 29.0912 15.3872 24.3931 14.4305 19.8129Z" fill="black"/>
</svg>
