<svg width="30" height="62" viewBox="0 0 30 62" fill="none" xmlns="http://www.w3.org/2000/svg">
<path fill-rule="evenodd" clip-rule="evenodd" d="M4.21598 37.2882C1.993 44.5591 2.04927 53.2887 6.87839 59.6559C7.75558 60.7791 6.15255 62.1617 5.33443 61.0286C2.55172 57.3351 1.10849 52.8118 0.810502 48.2225C0.181558 38.6997 4.3257 30.1195 8.98344 22.3425L9.02997 22.2651C13.2216 15.2907 17.6625 7.90162 23.957 2.74075C20.1144 2.82121 16.3178 3.33506 12.6157 4.27403C12.0451 4.43471 11.5021 3.92556 11.3898 3.31125C11.2776 2.69694 11.6644 2.18752 12.2115 2.06251C17.0483 0.821487 22.0234 0.336856 27.0221 0.523648C27.386 0.347413 27.8219 0.340379 28.1639 0.5941C28.7383 0.740813 29.1991 1.45983 28.9487 2.05765C26.9909 6.4458 25.4618 11.0459 24.3502 15.7964C24.2185 16.389 23.5193 16.6667 23.0325 16.4647C22.4527 16.2468 22.2241 15.6524 22.3558 15.0598C23.2361 11.2978 24.4 7.64629 25.8013 4.09747C22.6327 6.61374 19.925 9.71577 17.5347 13.0505C14.8411 16.7781 12.4293 20.7124 10.0879 24.6984C7.74659 28.6844 5.58135 32.7995 4.21598 37.2882Z" fill="black"/>
</svg>
