<svg width="52" height="66" viewBox="0 0 52 66" fill="none" xmlns="http://www.w3.org/2000/svg">
<path fill-rule="evenodd" clip-rule="evenodd" d="M35.4253 10.0752C33.5014 6.86756 30.2576 3.8278 26.2725 3.85566C25.7779 3.84227 25.2887 4.15137 25.2037 4.75982C25.1468 5.2333 25.4812 5.76828 25.9758 5.78167C30.0777 5.74001 33.1196 9.40199 34.7129 12.8042C38.1107 20.0386 36.6866 28.5844 33.33 35.9582C31.5688 39.7447 29.3483 43.2982 26.9565 46.7283C24.5844 50.1022 22.0124 53.3056 19.2405 56.3384C19.3544 55.9629 19.4719 55.5888 19.5894 55.2148C19.7651 54.6557 19.9407 54.0967 20.1043 53.5331C21.4333 49.1775 22.7831 44.7716 24.1328 40.3657C24.3064 39.8786 24.1373 39.3484 23.658 39.1659C23.2266 39.0016 22.6288 39.2398 22.4552 39.7268C22.0344 41.0804 21.6221 42.43 21.2099 43.7796C20.7976 45.1291 20.3854 46.4786 19.9645 47.8322C19.6061 49.0348 19.2356 50.2328 18.8652 51.4309C18.4948 52.629 18.1243 53.8271 17.7658 55.0298C17.5642 55.6517 17.3834 56.2233 17.2162 56.8292C17.0489 57.4351 16.964 58.0432 17.2498 58.5596C17.7227 59.4828 18.8058 59.3978 19.7369 59.3247C19.8636 59.3148 19.9875 59.3051 20.1066 59.2981L34.575 58.5196C35.0552 58.4986 35.4214 57.8812 35.4376 57.3051C35.3851 56.7611 34.9474 56.478 34.4329 56.5149C33.1808 56.5913 31.9254 56.6591 30.6699 56.7268C29.4145 56.7946 28.1591 56.8624 26.907 56.9387C25.6074 57.0225 24.315 57.0891 23.0282 57.1554C22.2932 57.1933 21.56 57.2311 20.8284 57.272C24.0017 53.7843 26.93 50.0921 29.5491 46.1708C34.3616 38.972 38.4636 30.804 38.5279 22.1196C38.5804 17.8288 37.5676 13.628 35.4253 10.0752Z" fill="black"/>
</svg>
