<svg width="39" height="55" viewBox="0 0 39 55" fill="none" xmlns="http://www.w3.org/2000/svg">
<path fill-rule="evenodd" clip-rule="evenodd" d="M10.9886 48.8088C8.10612 47.4588 6.00496 45.3062 4.91408 42.5634C4.77767 42.239 4.43067 42.1024 3.86668 42.3528C3.41902 42.5737 2.91242 43.1595 3.04442 43.4581C4.53416 47.1999 7.62119 49.8735 11.9737 51.1951C12.5293 51.3686 13.3388 50.6613 13.492 50.138C14.4765 46.4343 16.1261 42.5982 18.3421 38.7624C18.592 38.3313 18.2931 38.0031 17.8563 38.0508C17.3777 38.0911 16.8775 38.4779 16.6276 38.909C15.0996 41.5288 13.8547 44.1552 12.8962 46.7383C12.826 44.5124 13.0103 42.1725 13.4252 39.7635C14.4495 33.767 16.8981 27.3281 20.5467 20.8865C24.1605 14.4921 29.0185 8.10283 34.8127 2.17051C35.7981 1.17194 34.6078 0.484091 33.5781 1.47491C30.1907 4.95408 27.1221 8.54241 24.412 12.2202C19.6218 18.7544 15.9416 25.5099 13.6699 31.9798C11.6083 37.9256 10.6468 43.6443 10.9886 48.8088Z" fill="black"/>
</svg>
