<svg width="45" height="34" viewBox="0 0 45 34" fill="none" xmlns="http://www.w3.org/2000/svg">
<path fill-rule="evenodd" clip-rule="evenodd" d="M4.81314 24.3562C7.16204 26.4897 10.0045 28.0257 13.0787 28.8076C13.4619 28.9104 13.7252 29.1868 13.6651 29.6465C13.5944 30.0118 13.1675 30.4326 12.8125 30.3328C8.42142 29.2149 4.57165 26.7873 1.6734 23.3111C1.29849 22.8675 1.74432 22.2002 2.23112 22.0654C5.71162 21.1916 9.09471 19.7793 12.2781 17.9109C12.6356 17.7002 13.0799 17.9337 13.1845 18.2866C13.3113 18.6728 13.0878 19.0841 12.7303 19.2948C10.2493 20.7678 7.62888 21.9426 4.94458 22.8139C7.75749 22.9598 10.6286 22.7746 13.4829 22.2984C19.0567 21.3755 24.582 19.3474 29.7008 16.3965C34.7849 13.4733 39.4398 9.59356 43.3241 5.0042C43.9745 4.22391 45.0597 5.12373 44.4321 5.93784C42.1503 8.62116 39.6521 11.0617 36.9433 13.2287C32.122 17.0595 26.704 20.0418 21.0878 21.9347C15.7305 23.7163 10.2116 24.5841 4.81314 24.3562Z" fill="black"/>
</svg>
