<svg width="51" height="66" viewBox="0 0 51 66" fill="none" xmlns="http://www.w3.org/2000/svg">
<path fill-rule="evenodd" clip-rule="evenodd" d="M1.32404 26.2031C0.00548305 22.7028 -0.361656 18.2725 2.13566 15.1669C2.43242 14.771 2.97849 14.5797 3.50812 14.891C3.91456 15.1405 4.12608 15.7348 3.82932 16.1308C1.2486 19.3194 2.22877 23.978 3.90523 27.3401C7.46383 34.4966 15.0455 38.6892 22.9092 40.6393C26.9705 41.6112 31.1346 42.0785 35.3084 42.3349C39.4259 42.5718 43.534 42.5461 47.6326 42.2578C47.2676 42.1138 46.9014 41.9735 46.5353 41.8333C45.9881 41.6236 45.4409 41.414 44.8976 41.1921C40.6587 39.5279 36.3675 37.8488 32.0763 36.1697C31.5868 36.0032 31.2764 35.5412 31.4311 35.0522C31.5703 34.6121 32.1283 34.2917 32.6178 34.4582C33.94 34.9692 35.2537 35.4844 36.5674 35.9997C37.881 36.515 39.1947 37.0302 40.5168 37.5412C41.6819 38.0074 42.8509 38.4613 44.0199 38.9152C45.1889 39.3692 46.3579 39.8231 47.5231 40.2893C48.1357 40.5176 48.696 40.731 49.2747 40.9763C49.8534 41.2216 50.3827 41.5327 50.6098 42.0775C51.0396 43.0216 50.3001 43.8176 49.6645 44.5019C49.578 44.595 49.4934 44.686 49.414 44.7751L39.8163 55.6298C39.5016 55.9931 38.7902 55.8965 38.3287 55.5514C37.935 55.1723 37.985 54.6534 38.3336 54.2731C39.1712 53.3394 40.0042 52.3976 40.8372 51.4559C41.6701 50.5142 42.5031 49.5724 43.3407 48.6387C44.2136 47.6723 45.0687 46.7008 45.92 45.7336C46.4063 45.1811 46.8913 44.63 47.3778 44.0821C42.6735 44.4024 37.9609 44.4036 33.261 44.0202C24.6302 43.3198 15.6811 41.4606 8.83554 36.1163C5.44038 33.4921 2.77747 30.0889 1.32404 26.2031Z" fill="black"/>
</svg>
