<svg width="86" height="71" viewBox="0 0 86 71" fill="none" xmlns="http://www.w3.org/2000/svg">
<path fill-rule="evenodd" clip-rule="evenodd" d="M46.152 65.1146C40.9285 61.0862 36.1503 56.0219 32.3604 50.4828C31.921 49.8511 31.3435 49.421 30.7753 49.5291C30.3417 49.6528 30.1144 50.3666 30.5276 50.9518C35.4822 58.1908 41.7643 64.5102 48.7015 69.2365C49.5908 69.848 50.1333 69.0983 49.9305 68.2909C48.36 62.5197 47.5873 56.8994 47.5827 51.6008C47.5833 51.0057 46.9207 50.2754 46.3659 50.1093C45.7488 49.9068 45.3741 50.2842 45.3735 50.8792C45.3578 54.2948 45.6903 57.8641 46.3414 61.5165C44.7466 57.9778 43.3697 54.3989 42.2133 50.8361C39.2908 41.8583 37.7514 32.9569 37.6327 24.7088C37.5053 16.5167 38.8563 9.01433 41.6324 2.75183C42.1117 1.70322 40.2261 -0.0431415 39.6891 0.968917C38.0737 4.6476 36.9116 8.67465 36.2361 13.0403C35.0656 20.8105 35.3633 29.5406 37.1337 38.5882C38.8724 47.3221 41.8726 56.3214 46.152 65.1146Z" fill="black"/>
</svg>
