<svg width="57" height="42" viewBox="0 0 57 42" fill="none" xmlns="http://www.w3.org/2000/svg">
<path fill-rule="evenodd" clip-rule="evenodd" d="M52.9537 24.2429C51.9908 27.1697 50.1997 29.5935 47.7321 31.2792C47.4245 31.4974 47.3405 31.8706 47.683 32.3527C47.9774 32.7295 48.6511 33.0673 48.9332 32.8603C52.4944 30.4258 54.7215 26.7206 55.3785 22.1421C55.4672 21.5564 54.6228 20.9563 54.0679 20.9454C50.1568 20.9653 46.0069 20.3737 41.7684 19.2316C41.2919 19.1024 41.006 19.4794 41.123 19.8914C41.239 20.3459 41.7099 20.73 42.1864 20.8592C45.5114 21.7707 48.7867 22.3173 51.935 22.5144C49.2706 23.4506 46.3532 24.0504 43.2758 24.3355C37.1039 24.9155 30.2743 24.2373 23.2621 22.4021C16.3024 20.5881 9.16131 17.5725 2.33837 13.5343C1.18837 12.8448 0.676563 14.173 1.82542 14.9072C5.82531 17.2652 9.88692 19.287 13.9845 20.9396C21.261 23.8518 28.593 25.6354 35.4272 26.135C41.7995 26.5755 47.7668 25.9833 52.9537 24.2429Z" fill="black"/>
</svg>
