<svg width="71" height="91" viewBox="0 0 71 91" fill="none" xmlns="http://www.w3.org/2000/svg">
<path fill-rule="evenodd" clip-rule="evenodd" d="M18.9196 0.765448C12.7549 -0.000551686 5.70669 1.48285 0.732608 7.98101C-0.255167 9.23788 1.05659 11.432 2.09983 10.177C2.71063 9.38046 3.34467 8.71373 4.03417 8.04886C6.73074 5.55934 9.91082 4.33308 13.0085 3.87807C15.7442 3.45391 18.4881 3.58903 21.1848 4.2816C26.6338 5.66858 31.7366 9.022 36.2369 13.7312C40.9006 18.5319 44.9033 24.7725 48.0703 31.888C51.7823 40.0969 54.4571 49.3889 56.4543 59.0022C58.3547 68.2609 59.6307 77.7657 60.5653 87.3823C59.5741 86.7439 58.7434 85.4922 57.9794 84.3411L57.9499 84.2966C56.5216 82.0854 55.0867 79.8632 53.6519 77.641C52.2196 75.4229 50.7873 73.2047 49.3616 70.9975C48.4981 69.6417 47.0456 71.7328 47.9061 73.174C48.8102 74.5526 49.7005 75.9307 50.5908 77.3088C51.481 78.6868 52.3712 80.0648 53.2753 81.4432C53.6757 82.0645 54.0715 82.6983 54.4677 83.3328C55.5223 85.0214 56.5794 86.7141 57.7318 88.1839C59.2099 90.1167 60.9352 91.2874 62.9436 90.6701C67.0995 89.3975 68.9273 82.8681 70.2233 77.348C70.6746 75.4801 68.7981 74.6894 68.3758 76.5155C68.354 76.6093 68.3321 76.7033 68.3102 76.7977C67.6475 79.6514 66.928 82.7492 65.5133 85.0216C64.7213 86.2952 63.6948 87.3588 62.5739 87.6962C62.5341 87.2951 62.4928 86.8914 62.4515 86.4878C62.3842 85.8298 62.3169 85.1717 62.2562 84.5247C61.1763 74.0821 59.676 63.7545 57.3842 53.8303C55.1156 44.0359 52.0818 34.6888 47.9524 26.5089C44.4203 19.5101 40.0204 13.5142 35.0966 9.0058C30.1729 4.49737 24.6669 1.56043 18.9196 0.765448Z" fill="black"/>
</svg>
