<svg width="48" height="48" viewBox="0 0 48 48" fill="none" xmlns="http://www.w3.org/2000/svg">
<path fill-rule="evenodd" clip-rule="evenodd" d="M26.958 3.54766C29.717 7.0995 32.0051 11.2589 33.5597 15.5628C33.7417 16.0549 34.0493 16.4374 34.4429 16.4632C34.7502 16.4557 35.0222 16.0234 34.8495 15.5665C32.8168 9.94157 29.7507 4.69666 25.9799 0.391253C25.4974 -0.164386 25.0112 0.237719 25.007 0.805315C25.057 4.88294 24.6063 8.72459 23.7035 12.2227C23.6014 12.6153 23.9139 13.2106 24.2517 13.4151C24.6244 13.6542 24.9363 13.4692 25.0384 13.0766C25.6326 10.8249 26.0233 8.41221 26.2179 5.89019C26.6656 8.49843 26.9626 11.096 27.1168 13.6453C27.511 20.0705 27.0054 26.2089 25.6738 31.6732C24.3575 37.102 22.1833 41.8229 19.2804 45.4818C18.7848 46.092 19.7309 47.567 20.2583 46.9908C21.9534 44.8389 23.4088 42.3795 24.6009 39.6135C26.7018 34.685 27.9976 28.872 28.3758 22.5976C28.7212 16.5357 28.2794 10.083 26.958 3.54766Z" fill="black"/>
</svg>
