<svg width="38" height="55" viewBox="0 0 38 55" fill="none" xmlns="http://www.w3.org/2000/svg">
<path fill-rule="evenodd" clip-rule="evenodd" d="M27.9386 48.8088C30.8211 47.4588 32.9223 45.3062 34.0132 42.5634C34.1496 42.239 34.4966 42.1024 35.0606 42.3528C35.5082 42.5737 36.0148 43.1595 35.8828 43.4581C34.3931 47.1999 31.3061 49.8735 26.9535 51.1951C26.3979 51.3686 25.5885 50.6613 25.4353 50.138C24.4508 46.4343 22.8012 42.5982 20.5851 38.7624C20.3353 38.3313 20.6341 38.0031 21.071 38.0508C21.5495 38.0911 22.0497 38.4779 22.2996 38.909C23.8277 41.5288 25.0725 44.1552 26.0311 46.7383C26.1013 44.5124 25.917 42.1725 25.5021 39.7635C24.4778 33.767 22.0292 27.3281 18.3806 20.8865C14.7668 14.4921 9.90875 8.10283 4.11454 2.17051C3.1291 1.17194 4.31945 0.484091 5.3491 1.47491C8.73656 4.95408 11.8051 8.54241 14.5153 12.2202C19.3054 18.7544 22.9856 25.5099 25.2574 31.9798C27.3189 37.9256 28.2804 43.6443 27.9386 48.8088Z" fill="black"/>
</svg>
