<svg width="32" height="32" viewBox="0 0 32 32" fill="none" xmlns="http://www.w3.org/2000/svg">
<path fill-rule="evenodd" clip-rule="evenodd" d="M8.0755 6.17089L8.07604 6.17078C8.38199 6.10772 8.71026 5.91461 8.96829 5.61126C9.22632 5.30791 9.36428 4.95291 9.37744 4.6408L9.37746 4.64027L9.38875 4.35674L9.1107 4.41336L9.11018 4.41347C8.80423 4.47652 8.47595 4.66964 8.21791 4.97299C7.95988 5.27633 7.82193 5.63132 7.80876 5.94343L7.80874 5.94398L7.79745 6.22751L8.0755 6.17089ZM9.94327 6.4406C9.52204 6.93581 8.95062 7.29772 8.33331 7.42466L8.33211 7.4249L7.42626 7.60937C6.88205 8.1774 6.4198 8.79992 6.0386 9.46125C6.02824 9.48074 6.01762 9.50009 6.00675 9.51929L6.00615 9.52035L5.93708 9.64177C5.8837 9.73909 5.83204 9.8372 5.7821 9.93605C5.94911 9.88864 6.11973 9.8573 6.29157 9.84382L6.29279 9.84373L7.39064 9.75974C7.58666 9.74474 7.77871 9.82067 7.91147 9.96567C8.04424 10.1107 8.103 10.3086 8.07084 10.5026L7.89071 11.5888L7.8905 11.59C7.78621 12.2115 7.44543 12.7958 6.96595 13.2349C6.48646 13.6739 5.87451 13.962 5.24621 14.0113L5.24499 14.0114L4.70589 14.0526L4.68602 14.3413C4.66896 14.9653 4.70564 15.5916 4.79554 16.2114C4.90412 16.0821 5.02408 15.9635 5.15456 15.8581L5.15551 15.8573L6.01352 15.1673C6.16672 15.0441 6.36804 14.9981 6.55953 15.0426C6.75102 15.0872 6.91143 15.2172 6.99457 15.3954L7.46019 16.3931L7.46071 16.3942C7.72613 16.9659 7.77543 17.6404 7.62821 18.2737C7.481 18.9069 7.13918 19.4906 6.64883 19.8865L6.64788 19.8873L6.22374 20.2284C6.66517 20.9603 7.20043 21.6446 7.82828 22.26C7.81952 21.8646 7.88795 21.472 8.03923 21.1155L8.0397 21.1144L8.47177 20.1016C8.54892 19.9208 8.7049 19.7855 8.8948 19.7346C9.08469 19.6837 9.28744 19.7229 9.44467 19.8409L10.3252 20.502L10.3262 20.5027C10.8295 20.882 11.1906 21.454 11.3589 22.0819C11.5271 22.7099 11.5004 23.3858 11.2542 23.9659L11.2537 23.967L11.0663 24.4063C11.725 24.6851 12.4337 24.9094 13.1918 25.0705L13.1975 25.0716L13.2259 25.0775C13.2497 25.0826 13.2831 25.0899 13.3258 25.0999C13.411 25.1198 13.5331 25.1502 13.6881 25.1935C13.998 25.28 14.4399 25.4183 14.9828 25.6283C15.2911 25.7476 15.6322 25.89 16.0003 26.0592C16.3684 25.89 16.7094 25.7476 17.0178 25.6283C17.5607 25.4183 18.0026 25.28 18.3125 25.1935C18.4675 25.1502 18.5895 25.1198 18.6748 25.0999C18.7174 25.0899 18.7509 25.0826 18.7747 25.0775L18.803 25.0716L18.8088 25.0705C19.5668 24.9094 20.2755 24.6851 20.9343 24.4063L20.7469 23.967L20.7464 23.9659C20.5002 23.3858 20.4734 22.7099 20.6417 22.0819C20.81 21.454 21.1711 20.882 21.6744 20.5027L21.6753 20.502L22.5559 19.8409C22.7131 19.7229 22.9159 19.6837 23.1058 19.7346C23.2957 19.7855 23.4516 19.9208 23.5288 20.1016L23.9609 21.1144L23.9613 21.1155C24.1126 21.472 24.181 21.8646 24.1723 22.26C24.8001 21.6446 25.3354 20.9603 25.7768 20.2284L25.3527 19.8873L25.3517 19.8865C24.8614 19.4906 24.5196 18.9069 24.3724 18.2737C24.2251 17.6404 24.2744 16.9659 24.5399 16.3942L24.5404 16.3931L25.006 15.3954C25.0891 15.2172 25.2495 15.0872 25.441 15.0426C25.6325 14.9981 25.8338 15.0441 25.987 15.1673L26.8451 15.8573L26.846 15.8581C26.9765 15.9635 27.0964 16.0821 27.205 16.2114C27.2949 15.5916 27.3316 14.9653 27.3145 14.3413L27.2947 14.0527L26.7556 14.0114L26.7544 14.0113C26.1261 13.962 25.5141 13.6739 25.0346 13.2349C24.5551 12.7958 24.2144 12.2115 24.1101 11.59L24.1099 11.5888L23.9297 10.5026C23.8976 10.3086 23.9563 10.1107 24.0891 9.96567C24.2219 9.82067 24.4139 9.74474 24.6099 9.75974L25.7078 9.84373L25.709 9.84382C25.8808 9.8573 26.0515 9.88864 26.2185 9.93605C26.1685 9.83721 26.1169 9.73912 26.0635 9.64182L25.9944 9.52035L25.9938 9.51929C25.9829 9.50008 25.9723 9.48073 25.962 9.46124C25.5808 8.79991 25.1185 8.17739 24.5743 7.60937L23.6684 7.4249L23.6673 7.42466C23.0499 7.29772 22.4785 6.93581 22.0573 6.4406C21.6361 5.94539 21.3705 5.32331 21.3442 4.69364L21.3442 4.69242L21.3004 3.59223C21.2925 3.39579 21.3754 3.20665 21.5252 3.07927C21.6749 2.95189 21.8749 2.90041 22.0676 2.93964L23.1465 3.15935L23.1477 3.15959C23.765 3.28653 24.3364 3.64844 24.7576 4.14365C25.1789 4.63886 25.4444 5.26094 25.4707 5.89062L25.4708 5.89184L25.5041 6.72967C25.6126 6.84305 25.7181 6.95833 25.8208 7.07543C25.9693 6.65552 26.2069 6.27257 26.5222 5.97305L26.5231 5.97221L27.3228 5.2154C27.4656 5.08027 27.6626 5.01827 27.8571 5.04724C28.0515 5.07622 28.2219 5.19295 28.3191 5.36384L28.8634 6.32093L28.864 6.32199C29.1745 6.8704 29.2779 7.53884 29.1821 8.18187C29.0863 8.8249 28.7925 9.43417 28.3356 9.86822L28.3347 9.86906L27.8074 10.3681C27.956 10.7524 28.0834 11.1441 28.1898 11.5412C28.5043 11.2306 28.8818 10.9912 29.2926 10.859L29.2938 10.8586L30.3426 10.5233C30.5298 10.4634 30.7342 10.493 30.8969 10.6034C31.0595 10.7138 31.1624 10.8928 31.1759 11.089L31.2515 12.1874L31.2516 12.1886C31.2937 12.8175 31.0971 13.4646 30.732 14.0026C30.3668 14.5405 29.838 14.9622 29.238 15.1552L29.2369 15.1556L28.5737 15.3676C28.5667 15.4866 28.5579 15.6055 28.5474 15.7243C28.9982 15.5139 29.4943 15.4135 29.9772 15.454L29.9784 15.4541L31.0754 15.5482C31.2713 15.565 31.4486 15.6709 31.5562 15.8354C31.6639 15.9999 31.69 16.2048 31.627 16.391L31.2741 17.434L31.2737 17.4351C31.0706 18.0317 30.64 18.5534 30.096 18.9094C29.5521 19.2654 28.9017 19.4511 28.2736 19.3985L28.2724 19.3984L27.66 19.3458L27.6579 19.3504L27.6574 19.3515L27.6459 19.3761C27.5256 19.6627 27.3939 19.9451 27.2509 20.2225L27.241 20.2436C27.6698 20.2271 28.097 20.3004 28.4804 20.4702L28.4815 20.4707L29.4874 20.9186C29.667 20.9985 29.7998 21.1566 29.8478 21.3473C29.8957 21.538 29.8533 21.7401 29.7328 21.8954L29.0581 22.7655L29.0574 22.7665C28.6702 23.2638 28.0927 23.6159 27.4622 23.7744C26.8316 23.9328 26.1563 23.8955 25.5801 23.6402L25.5789 23.6397L24.9063 23.3402C24.7271 23.5088 24.5415 23.6724 24.3495 23.8308C24.887 24.0192 25.3685 24.3514 25.7015 24.7933L25.7022 24.7942L26.3632 25.6748C26.4812 25.832 26.5205 26.0348 26.4696 26.2247C26.4187 26.4146 26.2834 26.5705 26.1025 26.6477L25.0898 27.0798L25.0887 27.0802C24.5085 27.3264 23.8327 27.3532 23.2047 27.1849C22.5767 27.0167 22.0048 26.6556 21.6254 26.1523L21.6247 26.1513L21.2564 25.6606C20.574 25.9357 19.8452 26.1591 19.0702 26.3235L19.0642 26.3248L19.0594 26.3257L19.0593 26.3257L19.0589 26.3258L19.0586 26.3258L19.0582 26.3259L19.0568 26.3262L19.0407 26.3296L19.0271 26.3325C19.0119 26.3358 18.9915 26.3404 18.966 26.3463C18.8978 26.3622 18.7935 26.3881 18.6568 26.4263C18.3844 26.5024 17.9837 26.6273 17.4847 26.8201C18.0303 27.1291 18.6087 27.4894 19.2077 27.9087C19.4973 28.1114 19.5677 28.5105 19.365 28.8C19.1623 29.0896 18.7632 29.16 18.4737 28.9573C17.5832 28.334 16.7437 27.8508 16.0003 27.4788C15.2569 27.8508 14.4174 28.334 13.5269 28.9573C13.2373 29.16 12.8383 29.0896 12.6356 28.8C12.4329 28.5105 12.5033 28.1114 12.7929 27.9087C13.3919 27.4894 13.9702 27.1291 14.5159 26.8201C14.0168 26.6273 13.6162 26.5024 13.3437 26.4263C13.2071 26.3881 13.1027 26.3622 13.0346 26.3463C13.0005 26.3383 12.9754 26.3329 12.9599 26.3296L12.9438 26.3262L12.9423 26.3259L12.942 26.3258L12.9417 26.3258L12.9413 26.3257L12.9412 26.3257L12.9363 26.3248L12.9304 26.3235C12.1554 26.1591 11.4265 25.9357 10.7442 25.6606L10.3759 26.1513L10.3751 26.1523C9.99579 26.6556 9.42386 27.0167 8.79588 27.1849C8.16791 27.3532 7.49205 27.3264 6.9119 27.0802L6.91078 27.0798L5.89803 26.6477C5.7172 26.5705 5.58187 26.4146 5.53098 26.2247C5.4801 26.0348 5.51932 25.832 5.63735 25.6748L6.29837 24.7942L6.29911 24.7933C6.6321 24.3514 7.11354 24.0192 7.65102 23.8308C7.45902 23.6724 7.27342 23.5088 7.09425 23.3402L6.42163 23.6397L6.42051 23.6402C5.84428 23.8955 5.16892 23.9328 4.53839 23.7744C3.90786 23.6159 3.33035 23.2638 2.94321 22.7665L2.94246 22.7655L2.26775 21.8954C2.14728 21.7401 2.1049 21.538 2.15281 21.3473C2.20072 21.1566 2.3336 20.9985 2.5132 20.9186L3.51906 20.4707L3.52018 20.4702C3.90355 20.3004 4.33081 20.2271 4.75955 20.2436L4.74968 20.2225C4.60669 19.9451 4.47501 19.6627 4.35468 19.3761L4.3432 19.3515L4.34268 19.3504L4.34058 19.3458L3.72814 19.3984L3.72692 19.3985C3.0989 19.4511 2.4485 19.2654 1.90451 18.9094C1.36053 18.5534 0.930009 18.0317 0.726885 17.4351L0.726492 17.434L0.373607 16.391C0.310598 16.2048 0.336676 15.9999 0.444332 15.8354C0.551988 15.6709 0.729276 15.565 0.925154 15.5482L2.02219 15.4541L2.0234 15.454C2.50627 15.4135 3.00236 15.5139 3.45314 15.7243C3.44266 15.6055 3.4339 15.4866 3.42687 15.3676L2.76368 15.1556L2.76252 15.1552C2.16259 14.9622 1.63372 14.5405 1.26861 14.0026C0.903491 13.4646 0.706863 12.8175 0.748941 12.1886L0.749024 12.1874L0.824636 11.089C0.838136 10.8928 0.941031 10.7138 1.1037 10.6034C1.26636 10.493 1.47075 10.4634 1.65801 10.5233L2.70678 10.8586L2.70794 10.859C3.11879 10.9912 3.49631 11.2306 3.81073 11.5412C3.91712 11.1441 4.04455 10.7524 4.19314 10.3681L3.66584 9.86906L3.66496 9.86822C3.20803 9.43417 2.91426 8.8249 2.81845 8.18187C2.72263 7.53884 2.82602 6.8704 3.13655 6.32199L3.13715 6.32093L3.68151 5.36384C3.77871 5.19295 3.94905 5.07622 4.1435 5.04724C4.33795 5.01827 4.53493 5.08027 4.67773 5.2154L5.47746 5.97221L5.47835 5.97305C5.79365 6.27257 6.03126 6.65553 6.17975 7.07543C6.28242 6.95833 6.38799 6.84305 6.49644 6.72967L6.5298 5.89184L6.52985 5.89062C6.55613 5.26094 6.82169 4.63886 7.24292 4.14365C7.66415 3.64844 8.23558 3.28653 8.85289 3.15959L8.85408 3.15935L9.933 2.93964C10.1256 2.90041 10.3256 2.95189 10.4754 3.07927C10.6251 3.20665 10.708 3.39579 10.7002 3.59223L10.6564 4.69242L10.6563 4.69364C10.6301 5.32331 10.3645 5.94539 9.94327 6.4406ZM5.43622 18.6314C5.47461 18.7291 5.51445 18.8263 5.55574 18.923L5.62362 19.0684L5.84474 18.8906L5.84516 18.8902C6.08812 18.6939 6.29128 18.3717 6.38146 17.9838C6.47164 17.5959 6.43143 17.2172 6.29999 16.9338L6.29976 16.9333L6.17977 16.6762L5.95865 16.854L5.95824 16.8544C5.71527 17.0507 5.51211 17.3729 5.42193 17.7608C5.34965 18.0717 5.36114 18.3767 5.43622 18.6314ZM6.12204 22.3038C6.05066 22.2175 5.98067 22.1303 5.91207 22.0423C5.71714 21.8346 5.42994 21.6628 5.09038 21.5775C4.70413 21.4805 4.32474 21.514 4.03906 21.6403L4.03858 21.6406L3.77936 21.756L3.95324 21.9802L3.95356 21.9806C4.14557 22.227 4.46407 22.4359 4.85031 22.5329C5.23655 22.63 5.61593 22.5965 5.9016 22.4701L5.90211 22.4699L6.16133 22.3545L6.12204 22.3038ZM4.87608 8.91819L4.90055 8.8749C5.04922 8.60415 5.11658 8.2356 5.05883 7.84804C5.00014 7.45414 4.82354 7.11669 4.59715 6.90144L4.59677 6.90107L4.39067 6.70604L4.25038 6.95269L4.25012 6.95315C4.09632 7.22505 4.02578 7.59933 4.08447 7.99323C4.14316 8.38712 4.31975 8.72456 4.54613 8.93982L4.54653 8.9402L4.75263 9.13524L4.87608 8.91819ZM3.44698 13.6396C3.43644 13.7669 3.42792 13.8944 3.4214 14.022L3.15461 13.9367L3.15408 13.9366C2.85676 13.8407 2.55134 13.6132 2.32768 13.2837C2.10402 12.9542 2.00533 12.5863 2.02605 12.2746L2.02608 12.2741L2.04557 11.991L2.31585 12.0774L2.31635 12.0776C2.61368 12.1734 2.91911 12.4009 3.14277 12.7305C3.34296 13.0254 3.44304 13.351 3.44698 13.6396ZM3.81175 17.8299L3.89116 18.0646L3.90114 18.0988L3.61997 18.1229L3.61942 18.123C3.30812 18.1489 2.93866 18.0565 2.60544 17.8384C2.27221 17.6203 2.03956 17.3187 1.93875 17.0231L1.93858 17.0226L1.84764 16.7538L2.13035 16.7295L2.13088 16.7295C2.44219 16.7035 2.81165 16.796 3.14489 17.0141C3.47811 17.2322 3.71075 17.5337 3.81157 17.8294L3.81175 17.8299ZM9.26228 25.0436L9.26177 25.0434C8.97416 24.9215 8.5943 24.8939 8.20963 24.997C7.82495 25.1001 7.50975 25.3139 7.32162 25.5633L7.3213 25.5637L7.15095 25.7906L7.41194 25.902L7.41243 25.9022C7.70004 26.0241 8.07991 26.0516 8.46459 25.9485C8.84926 25.8455 9.16446 25.6317 9.35259 25.3823L9.35292 25.3819L9.52328 25.1549L9.26228 25.0436ZM5.14614 12.7352L5.14669 12.7352C5.45811 12.7106 5.80782 12.5598 6.10153 12.2908C6.39525 12.0219 6.57623 11.6868 6.62806 11.3787L6.62815 11.3782L6.67457 11.0983L6.39164 11.1199L6.39112 11.1199C6.0797 11.1445 5.72997 11.2953 5.43625 11.5643C5.14254 11.8332 4.96156 12.1683 4.90972 12.4764L4.90963 12.4769L4.86321 12.7569L5.14614 12.7352ZM10.0761 23.4654L10.0759 23.4659L9.96453 23.7269L9.7376 23.5565L9.73715 23.5562C9.48778 23.3681 9.27399 23.0529 9.17092 22.6682C9.06785 22.2835 9.0954 21.9036 9.21731 21.616L9.21751 21.6155L9.32886 21.3545L9.55579 21.5249L9.55621 21.5252C9.8056 21.7133 10.0194 22.0285 10.1225 22.4132C10.2255 22.7979 10.198 23.1778 10.0761 23.4654ZM23.9245 6.17078L23.9251 6.17089L24.2031 6.22751L24.1918 5.94398L24.1918 5.94343C24.1786 5.63132 24.0407 5.27633 23.7827 4.97299C23.5246 4.66964 23.1963 4.47652 22.8904 4.41347L22.8899 4.41336L22.6118 4.35674L22.6231 4.64027L22.6231 4.6408C22.6363 4.95291 22.7742 5.30791 23.0323 5.61126C23.2903 5.91461 23.6186 6.10772 23.9245 6.17078ZM26.5643 18.6314C26.6394 18.3767 26.6509 18.0717 26.5786 17.7608C26.4885 17.3729 26.2853 17.0507 26.0423 16.8544L26.0419 16.854L25.8208 16.6762L25.7008 16.9333L25.7006 16.9338C25.5691 17.2172 25.5289 17.5959 25.6191 17.9838C25.7093 18.3717 25.9124 18.6939 26.1554 18.8902L26.1558 18.8906L26.3769 19.0684L26.4448 18.923C26.4861 18.8263 26.526 18.7291 26.5643 18.6314ZM25.8785 22.3038L25.8392 22.3545L26.0984 22.4699L26.099 22.4701C26.3846 22.5965 26.764 22.63 27.1503 22.5329C27.5365 22.4359 27.855 22.227 28.047 21.9806L28.0473 21.9802L28.2212 21.756L27.962 21.6406L27.9615 21.6403C27.6758 21.514 27.2964 21.4805 26.9102 21.5775C26.5706 21.6628 26.2834 21.8346 26.0885 22.0423C26.0199 22.1303 25.9499 22.2175 25.8785 22.3038ZM27.1 8.87488L27.1245 8.91829L27.2479 9.13524L27.454 8.9402L27.4544 8.93982C27.6808 8.72456 27.8574 8.38712 27.9161 7.99323C27.9748 7.59933 27.9042 7.22505 27.7504 6.95315L27.7502 6.95269L27.6099 6.70604L27.4038 6.90107L27.4034 6.90144C27.177 7.11669 27.0004 7.45414 26.9417 7.84804C26.884 8.23559 26.9513 8.60414 27.1 8.87488ZM28.846 13.9367L28.5792 14.022C28.5726 13.8944 28.5641 13.7669 28.5536 13.6396C28.5575 13.351 28.6576 13.0254 28.8578 12.7305C29.0814 12.4009 29.3869 12.1734 29.6842 12.0776L29.6847 12.0774L29.955 11.991L29.9745 12.2741L29.9745 12.2746C29.9952 12.5863 29.8965 12.9542 29.6729 13.2837C29.4492 13.6132 29.1438 13.8407 28.8465 13.9366L28.846 13.9367ZM28.0994 18.0988L28.1094 18.0646L28.1888 17.8299L28.189 17.8294C28.2898 17.5337 28.5225 17.2322 28.8557 17.0141C29.1889 16.796 29.5584 16.7035 29.8697 16.7295L29.8702 16.7295L30.1529 16.7538L30.062 17.0226L30.0618 17.0231C29.961 17.3187 29.7284 17.6203 29.3951 17.8384C29.0619 18.0565 28.6924 18.1489 28.3811 18.123L28.3806 18.1229L28.0994 18.0988ZM22.7388 25.0434L22.7383 25.0436L22.4773 25.1549L22.6476 25.3819L22.648 25.3823C22.8361 25.6317 23.1513 25.8455 23.536 25.9485C23.9207 26.0516 24.3005 26.0241 24.5881 25.9022L24.5886 25.9019L24.8496 25.7906L24.6793 25.5637L24.6789 25.5632C24.4908 25.3139 24.1756 25.1001 23.7909 24.997C23.4063 24.8939 23.0264 24.9215 22.7388 25.0434ZM26.8539 12.7352L26.8544 12.7352L27.1374 12.7569L27.0909 12.4769L27.0908 12.4764C27.039 12.1683 26.858 11.8332 26.5643 11.5643C26.2706 11.2953 25.9209 11.1445 25.6094 11.1199L25.6089 11.1199L25.326 11.0983L25.3724 11.3782L25.3725 11.3787C25.4243 11.6868 25.6053 12.0219 25.899 12.2908C26.1927 12.5598 26.5425 12.7106 26.8539 12.7352ZM21.9247 23.4659L21.9245 23.4654C21.8026 23.1777 21.775 22.7979 21.8781 22.4132C21.9812 22.0285 22.195 21.7133 22.4444 21.5252L22.4448 21.5249L22.6717 21.3545L22.7831 21.6155L22.7833 21.616C22.9052 21.9036 22.9327 22.2835 22.8296 22.6682C22.7266 23.0529 22.5128 23.3681 22.2634 23.5562L22.263 23.5565L22.036 23.7269L21.9247 23.4659ZM16.0364 8.06379L16.0377 8.06379C16.7896 8.06379 17.4859 8.2699 18.0116 8.64841C18.5405 9.02922 18.9177 9.60708 18.9177 10.3038C18.9177 11.4171 18.1774 12.5438 16.9977 12.5438C16.6441 12.5438 16.2794 12.4569 15.9821 12.2677C15.6807 12.076 15.3977 11.7367 15.3977 11.2638C15.3977 10.9103 15.6842 10.6238 16.0377 10.6238C16.3663 10.6238 16.6371 10.8715 16.6735 11.1905C16.7298 11.2247 16.8432 11.2638 16.9977 11.2638C17.2259 11.2638 17.6377 10.9825 17.6377 10.3038C17.6377 10.1045 17.5348 9.88236 17.2637 9.68717C16.9895 9.48976 16.5661 9.34391 16.0383 9.34379C14.8602 9.34632 13.7189 9.75507 12.8071 10.5011C11.8951 11.2473 11.2684 12.2852 11.0327 13.4398C10.9928 13.6352 10.8641 13.8009 10.6846 13.8878C10.5764 13.9402 10.4852 14.022 10.4213 14.1239C10.3575 14.2258 10.3236 14.3436 10.3236 14.4638C10.3236 14.584 10.3575 14.7018 10.4213 14.8037C10.4852 14.9056 10.5764 14.9874 10.6846 15.0398C10.8621 15.1258 10.9901 15.2888 11.0314 15.4816C11.277 16.6271 11.908 17.6537 12.8191 18.3901C13.7301 19.1265 14.8662 19.5282 16.0377 19.5282C17.2091 19.5282 18.3452 19.1265 19.2562 18.3901C20.1673 17.6537 20.7983 16.6271 21.0439 15.4816C21.0852 15.2888 21.2132 15.1258 21.3907 15.0398C21.4989 14.9874 21.5901 14.9056 21.654 14.8037C21.7178 14.7018 21.7517 14.584 21.7517 14.4638C21.7517 14.3436 21.7178 14.2258 21.654 14.1239C21.5901 14.022 21.4989 13.9402 21.3907 13.8878C21.2092 13.7999 21.0797 13.6316 21.0413 13.4336C20.8841 12.6222 20.5327 11.861 20.0173 11.2149C19.7969 10.9386 19.8422 10.5359 20.1185 10.3155C20.3948 10.0951 20.7975 10.1404 21.018 10.4167C21.6021 11.1489 22.0176 11.9995 22.2366 12.9078C22.4361 13.052 22.6068 13.2338 22.7386 13.4441C22.9301 13.7497 23.0317 14.1031 23.0317 14.4638C23.0317 14.8245 22.9301 15.1779 22.7386 15.4835C22.6054 15.696 22.4324 15.8794 22.2303 16.0243C21.8855 17.3453 21.1265 18.5242 20.0609 19.3855C18.9221 20.3061 17.502 20.8082 16.0377 20.8082C14.5733 20.8082 13.1532 20.3061 12.0144 19.3855C10.9488 18.5242 10.1898 17.3453 9.84505 16.0243C9.6429 15.8794 9.46994 15.696 9.33675 15.4835C9.14519 15.1779 9.04359 14.8245 9.04359 14.4638C9.04359 14.1031 9.14519 13.7497 9.33675 13.4441C9.46925 13.2327 9.64108 13.0501 9.84187 12.9055C10.176 11.5742 10.9303 10.3828 11.9966 9.51045C13.1366 8.57772 14.5634 8.06677 16.0364 8.06379ZM13.4777 14.4638C13.4777 14.1103 13.7642 13.8238 14.1177 13.8238H14.1241C14.4775 13.8238 14.7641 14.1103 14.7641 14.4638C14.7641 14.8173 14.4775 15.1038 14.1241 15.1038H14.1177C13.7642 15.1038 13.4777 14.8173 13.4777 14.4638ZM17.3177 14.4638C17.3177 14.1103 17.6042 13.8238 17.9577 13.8238H17.9641C18.3175 13.8238 18.6041 14.1103 18.6041 14.4638C18.6041 14.8173 18.3175 15.1038 17.9641 15.1038H17.9577C17.6042 15.1038 17.3177 14.8173 17.3177 14.4638ZM14.2089 16.6945C14.3907 16.3914 14.7838 16.2931 15.0869 16.475C15.2953 16.6 15.6266 16.7038 16.0377 16.7038C16.4487 16.7038 16.78 16.6 16.9884 16.475C17.2915 16.2931 17.6846 16.3914 17.8664 16.6945C18.0483 16.9976 17.95 17.3907 17.6469 17.5726C17.2153 17.8316 16.6506 17.9838 16.0377 17.9838C15.4247 17.9838 14.86 17.8316 14.4284 17.5726C14.1253 17.3907 14.027 16.9976 14.2089 16.6945Z" fill="black"/>
</svg>
