<svg width="104" height="104" viewBox="0 0 104 104" fill="none" xmlns="http://www.w3.org/2000/svg">
<rect x="0.947214" y="0.947214" width="102.105" height="102.105" stroke="rgba(21, 18, 28, 0.08)" stroke-width="1.05263"/>
<mask id="mask0_2819_568" style="mask-type:alpha" maskUnits="userSpaceOnUse" x="0" y="0" width="104" height="104">
<rect x="0.420898" y="0.420898" width="103.158" height="103.158" fill="#D9D9D9"/>
</mask>
<g mask="url(#mask0_2819_568)">
<path d="M107.788 -2.73682C98.8426 24.1053 106.211 24.6316 115.156 31.4737" stroke="rgba(21, 18, 28, 0.08)" stroke-width="1.05263" stroke-linecap="round" stroke-linejoin="round"/>
<path d="M93.0507 45.1576C77.2628 31.9997 87.2623 24.105 84.6297 6.21025C86.5142 11.6829 85.7389 15.5338 88.8403 20.4208C92.526 13.0523 90.6247 7.73636 91.4734 0.947022C92.526 -7.47396 95.6824 -8.52666 95.6824 -15.895C95.6824 -5.89508 87.2644 -0.631992 96.2102 9.36808C96.2102 -6.94771 99.8929 -2.21087 99.8929 -12.7371C102.35 -11.1566 104.63 -6.94765 104.63 -6.94765" stroke="rgba(21, 18, 28, 0.08)" stroke-width="1.05263" stroke-linecap="round" stroke-linejoin="round"/>
<path d="M85.1577 -55.8944C86.1506 -58.5077 87.7893 -58.526 89.3682 -61.6839C89.3682 -52.2102 95.684 -52.7367 93.5788 -40.1051C101.474 -49.0525 93.5788 -55.8944 93.5788 -64.3154C94.6314 -56.9472 96.9593 -56.3409 98.3156 -50.1051C99.3682 -45.2653 95.1577 -38.526 100.947 -28.5261C102.526 -34.3156 103.579 -33.263 103.579 -41.684C103.579 -19.5788 106.349 -17.4735 105.684 -11.1577C104.631 -1.15773 98.8419 -2.21036 98.3156 10.4212" stroke="rgba(21, 18, 28, 0.08)" stroke-width="1.05263" stroke-linecap="round" stroke-linejoin="round"/>
<path d="M76.7368 0.947385C78.8421 -18 97.2631 -7.47367 89.8947 -44.8421C79.3684 -64.8421 85.9628 -70.1052 84.1052 -73.2631C73.5789 -91.1579 86.7368 -92.2105 86.7368 -98C86.7368 -106.947 82 -108.526 84.1052 -115.368" stroke="rgba(21, 18, 28, 0.08)" stroke-width="1.05263" stroke-linecap="round" stroke-linejoin="round"/>
<path d="M27.2632 -7.47348C28.2561 -10.0868 29.8948 -10.1051 31.4737 -13.263C31.4737 -3.78929 37.7895 -4.3158 35.6842 8.3158C43.579 -0.631566 35.6842 -7.47349 35.6842 -15.8945C36.7369 -8.5263 39.0648 -7.91999 40.4211 -1.6842C41.4737 3.15557 37.2632 9.89494 43.0527 19.8948C44.6316 14.1053 45.6842 15.1579 45.6842 6.73686C45.6842 28.8421 48.4543 30.9474 47.7895 37.2632C46.7369 47.2632 40.9474 46.2105 40.4211 58.8421" stroke="rgba(21, 18, 28, 0.08)" stroke-width="1.05263" stroke-linecap="round" stroke-linejoin="round"/>
<path d="M18.8423 49.3684C20.9475 30.4211 39.3686 40.9474 32.0002 3.57895C21.4739 -16.4211 28.0683 -21.6842 26.2107 -24.8421C15.6844 -42.7368 27.2645 -40.4515 27.2633 -49.5789C27.2624 -57.0239 25.1581 -61.1579 27.2633 -68" stroke="rgba(21, 18, 28, 0.08)" stroke-width="1.05263" stroke-linecap="round" stroke-linejoin="round"/>
<path d="M23.5793 -2.73682C36.7372 26.2106 15.6846 30.9474 15.6846 30.9474" stroke="rgba(21, 18, 28, 0.08)" stroke-width="1.05263" stroke-linecap="round" stroke-linejoin="round"/>
<path d="M6.73705 28.3159C13.0528 19.8949 21.4739 20.9476 21.4739 8.31592C26.2107 24.6318 9.36863 25.6844 4.10547 40.4212" stroke="rgba(21, 18, 28, 0.08)" stroke-width="1.05263" stroke-linecap="round" stroke-linejoin="round"/>
<path d="M15.1578 -10.1051C15.1578 -10.1051 11.9999 -20.1051 15.1578 -26.4209M17.7894 -7.99985C20.9473 -1.68406 18.842 4.63173 18.842 4.63173M16.2104 -1.68406C16.7367 8.84226 10.9473 12.5265 10.9473 12.5265" stroke="rgba(21, 18, 28, 0.08)" stroke-width="1.05263" stroke-linecap="round" stroke-linejoin="round"/>
<path d="M5.68434 -30.6318C-7.47338 -14.8424 27.1248 1.47343 -1.68408 15.1576C19.3686 5.15764 -0.63145 -15.3687 -0.63145 -15.3687" stroke="rgba(21, 18, 28, 0.08)" stroke-width="1.05263" stroke-linecap="round" stroke-linejoin="round"/>
<path d="M-10.105 13.5789C9.3687 12 -7.34288 -8.0611 -4.31551 -21.6843C-1.15761 -35.8948 15.5905 -30.6316 4.63186 -58.5264C8.1469 -49.579 11.474 -43.2632 10.9476 -38.0001C9.77741 -26.2977 -0.631297 -28.6132 13.5792 -8.00005" stroke="rgba(21, 18, 28, 0.08)" stroke-width="1.05263" stroke-linecap="round" stroke-linejoin="round"/>
<path d="M46.3135 42.0002C45.3206 39.3868 43.6819 39.3685 42.103 36.2107C42.103 45.6843 35.7872 45.1578 37.8924 57.7894C29.9977 48.8421 37.8924 42.0001 37.8924 33.5791C36.8398 40.9473 34.5118 41.5536 33.1556 47.7894C32.1029 52.6292 36.3135 59.3686 30.524 69.3684C28.9451 63.5789 27.8924 64.6315 27.8924 56.2105C27.8924 78.3158 25.1223 80.421 25.7872 86.7368C26.8398 96.7368 32.6293 95.6842 33.1556 108.316" stroke="rgba(21, 18, 28, 0.08)" stroke-width="1.05263" stroke-linecap="round" stroke-linejoin="round"/>
<path d="M46.7373 25.6838C53.5794 17.2628 52.5264 10.947 49.8944 8.31543" stroke="rgba(21, 18, 28, 0.08)" stroke-width="1.05263" stroke-linecap="round" stroke-linejoin="round"/>
<path d="M49.9978 46.7363C36.8399 75.6837 57.8926 80.4205 57.8926 80.4205" stroke="rgba(21, 18, 28, 0.08)" stroke-width="1.05263" stroke-linecap="round" stroke-linejoin="round"/>
<path d="M66.8396 77.7891C60.5238 69.3681 52.1028 70.4207 52.1028 57.7891C47.3659 74.1049 64.208 75.1575 69.4712 89.8943" stroke="rgba(21, 18, 28, 0.08)" stroke-width="1.05263" stroke-linecap="round" stroke-linejoin="round"/>
<path d="M59.4755 17.2631C56.3141 9.89462 57.0793 6.21041 63.1597 1.47363C49.4753 8.84199 60.0016 13.5788 51.0544 27.2631" stroke="rgba(21, 18, 28, 0.08)" stroke-width="1.05263" stroke-linecap="round" stroke-linejoin="round"/>
<path d="M58.4189 39.3685C58.4189 39.3685 61.5768 29.3685 58.4189 23.0527M55.7873 41.4738C52.6294 47.7896 54.7347 54.1054 54.7347 54.1054M57.3662 47.7896C56.8399 58.3159 62.6294 62.0001 62.6294 62.0001" stroke="rgba(21, 18, 28, 0.08)" stroke-width="1.05263" stroke-linecap="round" stroke-linejoin="round"/>
<path d="M67.8923 18.8418C81.05 34.6313 46.4519 50.9471 75.2607 64.6313C54.2081 54.6313 74.2081 34.105 74.2081 34.105" stroke="rgba(21, 18, 28, 0.08)" stroke-width="1.05263" stroke-linecap="round" stroke-linejoin="round"/>
<path d="M83.6816 63.0525C64.208 61.4736 80.9195 41.4125 77.8922 27.7894C74.7343 13.5788 57.9862 18.842 68.9448 -9.05273C65.4298 -0.105366 62.1027 6.21042 62.629 11.4736C63.7992 23.1759 74.208 20.8604 59.9974 41.4736" stroke="rgba(21, 18, 28, 0.08)" stroke-width="1.05263" stroke-linecap="round" stroke-linejoin="round"/>
<path d="M94.208 60.4211C89.4712 49.3684 77.8922 55.6842 79.9975 42C77.4874 58.3158 92.1027 65.1579 77.8922 80.9474" stroke="rgba(21, 18, 28, 0.08)" stroke-width="1.05263" stroke-linecap="round" stroke-linejoin="round"/>
<path d="M109.998 60.421C109.998 60.421 103.155 54.1049 102.629 48.842C101.685 39.4011 104.734 43.0525 104.208 29.8945C104.208 43.5789 96.3133 43.5789 99.9976 54.1049C94.2081 47.263 93.6818 43.5788 95.2607 37.2628C91.0502 46.7367 95.787 56.7367 95.787 56.7367" stroke="rgba(21, 18, 28, 0.08)" stroke-width="1.05263" stroke-linecap="round" stroke-linejoin="round"/>
<path d="M19.895 128.842C34.105 113.053 19.895 107.79 21.474 91.474C21.474 106.737 34.105 97.7898 38.3161 115.685C39.8945 102.527 33.0524 99.8951 37.2634 85.6846C33.6763 97.7897 43.0524 99.3685 43.0524 107.263" stroke="rgba(21, 18, 28, 0.08)" stroke-width="1.05263" stroke-linecap="round" stroke-linejoin="round"/>
<path d="M39.3687 98.8419C41.4739 89.8946 46.7371 90.9472 45.6844 79.3682C47.7897 93.0525 43.6115 92.2023 44.1055 97.263C44.5995 102.324 50.9476 103.053 47.2634 112" stroke="rgba(21, 18, 28, 0.08)" stroke-width="1.05263" stroke-linecap="round" stroke-linejoin="round"/>
<path d="M25.6851 111.474C4.63246 107.789 22.7711 90.5045 19.8956 77.2632C16.8696 63.3285 1.4744 70.9474 10.4219 42" stroke="rgba(21, 18, 28, 0.08)" stroke-width="1.05263" stroke-linecap="round" stroke-linejoin="round"/>
<path d="M2.52637 89.3684C6.21058 82.5263 10.8705 78.6974 7.78953 69.8947C4.10531 59.3684 5.68426 59.3684 10.4211 41.4736" stroke="rgba(21, 18, 28, 0.08)" stroke-width="1.05263" stroke-linecap="round" stroke-linejoin="round"/>
<path d="M10.4206 69.895C23.5814 82.5266 -13.263 97.2634 16.2071 113.053C0.421232 104.595 11.4739 87.7898 16.2071 83.0529" stroke="rgba(21, 18, 28, 0.08)" stroke-width="1.05263" stroke-linecap="round" stroke-linejoin="round"/>
<path d="M0.420898 86.2105C3.57879 78.3158 0.420898 72 0.420898 72" stroke="rgba(21, 18, 28, 0.08)" stroke-width="1.05263" stroke-linecap="round" stroke-linejoin="round"/>
<path d="M-6.94727 75.6841C-1.15779 66.2104 -4.31569 64.6315 -1.68411 58.3157C0.947471 51.9999 8.31589 53.0525 10.4212 40.9473C7.85823 55.6841 -4.31569 50.421 1.47379 67.2631" stroke="rgba(21, 18, 28, 0.08)" stroke-width="1.05263" stroke-linecap="round" stroke-linejoin="round"/>
<path d="M4.10598 112C4.10598 112 -1.68344 105.684 -0.630867 96.7368" stroke="rgba(21, 18, 28, 0.08)" stroke-width="1.05263" stroke-linecap="round" stroke-linejoin="round"/>
<path d="M95.1582 109.895C99.895 98.8421 111.474 105.158 109.369 91.4736C111.879 107.789 97.2635 114.632 111.474 130.421" stroke="rgba(21, 18, 28, 0.08)" stroke-width="1.05263" stroke-linecap="round" stroke-linejoin="round"/>
<path d="M85.1577 79.3682C85.1577 93.0525 93.0525 93.0525 89.3682 103.579C95.1577 96.7367 95.684 93.0524 94.1051 86.7365C98.3156 96.2103 93.5788 106.21 93.5788 106.21" stroke="rgba(21, 18, 28, 0.08)" stroke-width="1.05263" stroke-linecap="round" stroke-linejoin="round"/>
<path d="M76.7368 196.737C78.8421 177.789 97.2631 188.316 89.8947 150.947C79.3684 130.947 85.9628 125.684 84.1052 122.526C73.5789 104.631 85.159 106.917 85.1579 97.7892C85.1569 90.3443 83.0526 86.2103 85.1579 79.3682" stroke="rgba(21, 18, 28, 0.08)" stroke-width="1.05263" stroke-linecap="round" stroke-linejoin="round"/>
<path d="M71.9957 115.158C75.1571 107.789 74.3919 104.105 68.3115 99.3682C81.9959 106.737 71.4696 111.473 80.4168 125.158" stroke="rgba(21, 18, 28, 0.08)" stroke-width="1.05263" stroke-linecap="round" stroke-linejoin="round"/>
<path d="M47.7896 160.947C67.2632 159.368 50.5517 139.307 53.579 125.684C56.7369 111.473 73.485 116.737 62.5264 88.8418C66.0414 97.7892 69.3685 104.105 68.8422 109.368C67.6719 121.07 57.2632 118.755 71.4738 139.368" stroke="rgba(21, 18, 28, 0.08)" stroke-width="1.05263" stroke-linecap="round" stroke-linejoin="round"/>
</g>
</svg>
