<svg width="104" height="104" viewBox="0 0 104 104" fill="none" xmlns="http://www.w3.org/2000/svg">
<rect x="0.526316" y="0.526316" width="102.105" height="102.105" rx="51.0526" stroke="#7AD7FF" stroke-width="1.05263"/>
<mask id="mask0_2819_739" style="mask-type:alpha" maskUnits="userSpaceOnUse" x="0" y="0" width="104" height="104">
<circle cx="51.5789" cy="51.5789" r="51.0526" fill="#D9D9D9" stroke="black" stroke-width="1.05263"/>
</mask>
<g mask="url(#mask0_2819_739)">
<path d="M82.2098 55.7899L75.3677 49.4741" stroke="#7AD7FF" stroke-width="1.05263" stroke-linecap="round" stroke-linejoin="round"/>
<path d="M100.63 78.4215C114.84 54.7372 114.315 26.1406 91.1572 18.4213C81.3226 15.1431 57.0313 15.2634 54.8398 33.1582C52.197 54.7371 83.7887 59.474 74.3145 39.4741" stroke="#7AD7FF" stroke-width="1.05263" stroke-linecap="round" stroke-linejoin="round"/>
<path d="M89.052 80C106.42 54.7369 111.684 29.65 91.1573 20.5263C81.6843 16.3157 57.0313 15.2632 54.8398 33.158C52.197 54.7369 83.7887 59.4738 74.3145 39.4739" stroke="#7AD7FF" stroke-width="1.05263" stroke-linecap="round" stroke-linejoin="round"/>
<path d="M71.6828 88.948C82.2091 61.5795 111.168 50.0005 94.3144 27.3688C85.367 15.3537 59.0516 20.0005 59.0518 35.2641C59.0519 52.2321 77.4724 50.001 74.3176 39.4745" stroke="#7AD7FF" stroke-width="1.05263" stroke-linecap="round" stroke-linejoin="round"/>
<path d="M66.947 78.9476C76.947 58.4213 100.631 50.5269 92.7364 30.5268C88.1658 18.9477 63.7891 20.5262 63.7891 35.7899C63.7891 46.3162 73.2627 46.3162 74.3186 39.4745" stroke="#7AD7FF" stroke-width="1.05263" stroke-linecap="round" stroke-linejoin="round"/>
<path d="M66.947 78.9478C76.947 58.4214 95.368 52.6321 87.4733 32.632C82.9026 21.053 63.7891 24.2109 63.7891 35.79C63.7891 46.3163 73.2627 46.3163 74.3186 39.4747" stroke="#7AD7FF" stroke-width="1.05263" stroke-linecap="round" stroke-linejoin="round"/>
<path d="M66.947 78.9475C76.947 58.4212 90.8943 54.2108 84.3154 35.7897C80.8898 26.198 63.7891 26.316 63.7891 35.7898C63.7891 46.316 73.2627 46.316 74.3186 39.4744" stroke="#7AD7FF" stroke-width="1.05263" stroke-linecap="round" stroke-linejoin="round"/>
<path d="M28.5256 63.1579C28.5256 63.1579 6.89514 40.8551 10.6309 16.8422C14.3155 -6.8419 49.155 -14.7366 60.1048 2.63182C75.3681 26.8424 38.5256 33.6845 44.3151 15.2632" stroke="#7AD7FF" stroke-width="1.05263" stroke-linecap="round" stroke-linejoin="round"/>
<path d="M42.2091 61.0531C30.1035 44.7373 11.7513 40.4209 14.8412 16.3163C17.4724 -4.21007 50.1047 -8.94703 57.4726 4.73723C65.5075 19.6605 46.9462 28.9478 44.3142 15.2635" stroke="#7AD7FF" stroke-width="1.05263" stroke-linecap="round" stroke-linejoin="round"/>
<path d="M70.1034 73.1581C49.052 42.6318 17.0151 38.3154 20.1049 14.2108C22.1964 -2.10493 47.2717 -4.21021 53.7893 7.89504C57.7565 15.2633 49.0525 25.2635 44.3048 15.2633" stroke="#7AD7FF" stroke-width="1.05263" stroke-linecap="round" stroke-linejoin="round"/>
<path d="M75.3668 65.7895C54.3153 35.2632 23.2247 37.9323 24.8414 13.6843C25.894 -2.10516 47.4732 -3.15781 53.7882 7.89477C57.9398 15.1607 49.0514 25.2632 44.3037 15.263" stroke="#7AD7FF" stroke-width="1.05263" stroke-linecap="round" stroke-linejoin="round"/>
<path d="M55 39.7372C43.4221 29.737 26.6481 24.211 29.5743 11.0532C31.6812 1.57918 46.4216 1.05303 50.6313 7.89515C55.0164 15.0226 49.0523 22.632 44.2997 15.2636" stroke="#7AD7FF" stroke-width="1.05263" stroke-linecap="round" stroke-linejoin="round"/>
<path d="M79.052 60.5266L76.4204 57.895" stroke="#7AD7FF" stroke-width="1.05263" stroke-linecap="round" stroke-linejoin="round"/>
<path d="M39.7889 101.489L32.9468 95.1733" stroke="#7AD7FF" stroke-width="1.05263" stroke-linecap="round" stroke-linejoin="round"/>
<path d="M58.21 124.121C72.4194 100.436 71.8947 71.8398 48.7368 64.1205C38.9022 60.8423 14.6109 60.9626 12.4194 78.8574C9.77662 100.436 41.3683 105.173 31.8941 85.1733" stroke="#7AD7FF" stroke-width="1.05263" stroke-linecap="round" stroke-linejoin="round"/>
<path d="M46.6316 125.699C64 100.436 69.2632 75.3492 48.7368 66.2256C39.2639 62.015 14.6109 60.9624 12.4194 78.8572C9.77662 100.436 41.3683 105.173 31.8941 85.1731" stroke="#7AD7FF" stroke-width="1.05263" stroke-linecap="round" stroke-linejoin="round"/>
<path d="M29.2634 134.647C39.7897 107.279 68.7482 95.6997 51.895 73.068C42.9476 61.0529 16.6322 65.6997 16.6323 80.9633C16.6325 97.9313 35.053 95.7002 31.8982 85.1738" stroke="#7AD7FF" stroke-width="1.05263" stroke-linecap="round" stroke-linejoin="round"/>
<path d="M24.5261 124.647C34.5261 104.121 58.2102 96.2261 50.3155 76.226C45.7449 64.647 21.3682 66.2254 21.3682 81.4891C21.3682 92.0154 30.8418 92.0154 31.8977 85.1738" stroke="#7AD7FF" stroke-width="1.05263" stroke-linecap="round" stroke-linejoin="round"/>
<path d="M24.5261 124.647C34.5261 104.121 52.9471 98.3313 45.0524 78.3312C40.4817 66.7522 21.3682 69.9101 21.3682 81.4892C21.3682 92.0155 30.8418 92.0155 31.8977 85.1739" stroke="#7AD7FF" stroke-width="1.05263" stroke-linecap="round" stroke-linejoin="round"/>
<path d="M24.5261 124.647C34.5261 104.121 48.4734 99.9105 41.8945 81.4894C38.4689 71.8977 21.3682 72.0158 21.3682 81.4895C21.3682 92.0157 30.8418 92.0157 31.8977 85.1741" stroke="#7AD7FF" stroke-width="1.05263" stroke-linecap="round" stroke-linejoin="round"/>
<path d="M-13.8952 108.857C-13.8952 108.857 -35.5258 86.5544 -31.79 62.5414C-28.1054 38.8573 6.73405 30.9626 17.6839 48.331C32.9472 72.5416 -3.8953 79.3837 1.89422 60.9624" stroke="#7AD7FF" stroke-width="1.05263" stroke-linecap="round" stroke-linejoin="round"/>
<path d="M-0.21078 106.752C-12.3164 90.4365 -30.6686 86.1201 -27.5787 62.0155C-24.9475 41.4892 7.68483 36.7522 15.0526 50.4365C23.0875 65.3597 4.52632 74.647 1.89424 60.9627" stroke="#7AD7FF" stroke-width="1.05263" stroke-linecap="round" stroke-linejoin="round"/>
<path d="M27.6816 118.857C6.6301 88.331 -25.4068 84.0146 -22.317 59.91C-20.2255 43.5943 4.84984 41.489 11.3675 53.5943C15.3346 60.9625 6.63063 70.9627 1.88291 60.9625" stroke="#7AD7FF" stroke-width="1.05263" stroke-linecap="round" stroke-linejoin="round"/>
<path d="M32.9459 111.489C11.8944 80.9624 -19.1962 83.6315 -17.5795 59.3835C-16.5269 43.5941 5.05227 42.5414 11.3673 53.594C15.5189 60.86 6.63049 70.9624 1.88278 60.9622" stroke="#7AD7FF" stroke-width="1.05263" stroke-linecap="round" stroke-linejoin="round"/>
<path d="M12.9426 85.6999C1.3646 75.6997 -15.7731 69.9102 -12.847 56.7524C-10.7401 47.2784 4.00039 46.7522 8.21001 53.5944C12.5952 60.7218 6.63107 68.3312 1.87848 60.9628" stroke="#7AD7FF" stroke-width="1.05263" stroke-linecap="round" stroke-linejoin="round"/>
<path d="M36.6316 106.226L34 103.594" stroke="#7AD7FF" stroke-width="1.05263" stroke-linecap="round" stroke-linejoin="round"/>
<path d="M143.169 32.5416C157.379 8.85727 156.854 -19.7393 133.696 -27.4586C123.862 -30.7368 99.5704 -30.6165 97.3788 -12.7217C94.7361 8.85725 126.328 13.5941 116.854 -6.40577" stroke="#7AD7FF" stroke-width="1.05263" stroke-linecap="round" stroke-linejoin="round"/>
<path d="M131.591 34.1202C148.959 8.857 154.223 -16.2299 133.696 -25.3535C124.223 -29.5641 99.5704 -30.6167 97.3788 -12.7219C94.7361 8.85704 126.328 13.5939 116.854 -6.40599" stroke="#7AD7FF" stroke-width="1.05263" stroke-linecap="round" stroke-linejoin="round"/>
<path d="M114.222 43.0681C124.748 15.6996 153.707 4.1206 136.853 -18.5111C127.906 -30.5262 101.591 -25.8794 101.591 -10.6158C101.591 6.35223 120.012 4.1211 116.857 -6.40534" stroke="#7AD7FF" stroke-width="1.05263" stroke-linecap="round" stroke-linejoin="round"/>
<path d="M71.0647 17.278C71.0647 17.278 49.4342 -5.02474 53.17 -29.0377C56.8545 -52.7218 91.694 -60.6165 102.644 -43.2481C117.907 -19.0375 81.0647 -12.1954 86.8542 -30.6167" stroke="#7AD7FF" stroke-width="1.05263" stroke-linecap="round" stroke-linejoin="round"/>
<path d="M84.7482 15.1733C72.6426 -1.14256 54.2904 -5.459 57.3803 -29.5636C60.0114 -50.09 92.6438 -54.8269 100.012 -41.1427C108.047 -26.2194 89.4853 -16.9321 86.8532 -30.6164" stroke="#7AD7FF" stroke-width="1.05263" stroke-linecap="round" stroke-linejoin="round"/>
<path d="M112.643 27.2782C91.591 -3.24807 59.5541 -7.56452 62.644 -31.6691C64.7354 -47.9848 89.8108 -50.0901 96.3284 -37.9848C100.296 -30.6166 91.5916 -20.6164 86.8438 -30.6166" stroke="#7AD7FF" stroke-width="1.05263" stroke-linecap="round" stroke-linejoin="round"/>
<path d="M117.906 19.9096C96.8544 -10.6167 65.7638 -7.94757 67.3804 -32.1956C68.4331 -47.985 90.0122 -49.0377 96.3273 -37.9851C100.479 -30.7191 91.5905 -20.6167 86.8427 -30.6169" stroke="#7AD7FF" stroke-width="1.05263" stroke-linecap="round" stroke-linejoin="round"/>
<path d="M87.262 148.857C87.262 148.857 65.6315 126.554 69.3672 102.541C73.0518 78.8573 107.891 70.9626 118.841 88.331C134.104 112.542 97.2619 119.384 103.051 100.962" stroke="#7AD7FF" stroke-width="1.05263" stroke-linecap="round" stroke-linejoin="round"/>
<path d="M100.947 146.752C88.8413 130.437 70.4891 126.12 73.579 102.015C76.2102 81.4892 108.843 76.7522 116.21 90.4365C124.245 105.36 105.684 114.647 103.052 100.963" stroke="#7AD7FF" stroke-width="1.05263" stroke-linecap="round" stroke-linejoin="round"/>
<path d="M128.839 158.857C107.787 128.331 75.7504 124.015 78.8403 99.91C80.9317 83.5943 106.007 81.489 112.525 93.5943C116.492 100.963 107.788 110.963 103.04 100.963" stroke="#7AD7FF" stroke-width="1.05263" stroke-linecap="round" stroke-linejoin="round"/>
<path d="M134.104 151.489C113.052 120.962 81.9616 123.632 83.5782 99.3835C84.6309 83.5941 106.21 82.5414 112.525 93.594C116.677 100.86 107.788 110.962 103.04 100.962" stroke="#7AD7FF" stroke-width="1.05263" stroke-linecap="round" stroke-linejoin="round"/>
<path d="M114.1 125.7C102.522 115.7 85.3841 109.91 88.3103 96.7524C90.4172 87.2784 105.158 86.7522 109.367 93.5944C113.752 100.722 107.788 108.331 103.036 100.963" stroke="#7AD7FF" stroke-width="1.05263" stroke-linecap="round" stroke-linejoin="round"/>
</g>
</svg>
