<svg width="524" height="640" viewBox="0 0 524 640" fill="none" xmlns="http://www.w3.org/2000/svg">
<path d="M503.783 436.736C456.42 397.263 486.418 373.579 478.521 319.894C484.174 336.312 481.848 347.865 491.152 362.526C502.209 340.421 496.506 324.473 499.052 304.105C502.209 278.842 511.678 275.684 511.678 253.579C511.678 283.578 486.425 299.368 513.262 329.368C513.262 280.421 524.31 294.631 524.31 263.052C531.68 267.794 538.521 280.421 538.521 280.421" stroke="#E07443" stroke-width="3.15789" stroke-linecap="round" stroke-linejoin="round"/>
<path d="M480.103 133.58C483.081 125.74 487.997 125.685 492.734 116.211C492.734 144.632 511.681 143.053 505.366 180.948C529.05 154.106 505.366 133.58 505.366 108.317C508.524 130.421 515.507 132.24 519.576 150.948C522.734 165.467 510.103 185.685 527.471 215.684C532.208 198.316 535.366 201.474 535.366 176.211C535.366 242.527 543.676 248.842 541.681 267.79C538.524 297.79 521.155 294.632 519.576 332.527" stroke="#E07443" stroke-width="3.15789" stroke-linecap="round" stroke-linejoin="round"/>
<path d="M454.84 304.105C461.156 247.263 516.419 278.842 494.314 166.737C462.735 106.737 482.518 90.9474 476.945 81.4738C445.366 27.7895 484.84 24.6316 484.84 7.26322C484.84 -19.5789 470.629 -24.3157 476.945 -44.842" stroke="#E07443" stroke-width="3.15789" stroke-linecap="round" stroke-linejoin="round"/>
<path d="M469.051 147.79C508.525 234.632 445.367 248.842 445.367 248.842" stroke="#E07443" stroke-width="3.15789" stroke-linecap="round" stroke-linejoin="round"/>
<path d="M418.524 240.947C437.472 215.684 462.735 218.842 462.735 180.947C476.945 229.895 426.419 233.053 410.629 277.263" stroke="#E07443" stroke-width="3.15789" stroke-linecap="round" stroke-linejoin="round"/>
<path d="M440.617 59.3684C450.101 37.263 447.805 26.2103 429.564 12C470.617 34.1051 439.038 48.3156 465.88 89.3684" stroke="#E07443" stroke-width="3.15789" stroke-linecap="round" stroke-linejoin="round"/>
<path d="M443.786 125.685C443.786 125.685 434.313 95.6847 443.786 76.7373M451.681 132C461.155 150.948 454.839 169.895 454.839 169.895M446.944 150.948C448.523 182.527 431.155 193.579 431.155 193.579" stroke="#E07443" stroke-width="3.15789" stroke-linecap="round" stroke-linejoin="round"/>
<path d="M415.367 64.1052C375.894 111.474 479.689 160.421 393.262 201.474C456.42 171.474 396.42 109.895 396.42 109.895" stroke="#E07443" stroke-width="3.15789" stroke-linecap="round" stroke-linejoin="round"/>
<path d="M367.998 196.737C426.419 192 376.284 131.817 385.366 90.9472C394.84 48.3156 445.085 64.1051 412.209 -19.5791C422.754 7.263 432.735 26.2104 431.156 41.9998C427.645 77.1069 396.419 70.1604 439.051 132" stroke="#E07443" stroke-width="3.15789" stroke-linecap="round" stroke-linejoin="round"/>
<path d="M336.419 188.842C350.629 155.684 385.366 174.632 379.051 133.579C386.581 182.526 342.735 203.053 385.366 250.421" stroke="#E07443" stroke-width="3.15789" stroke-linecap="round" stroke-linejoin="round"/>
<path d="M306.419 97.2627C306.419 138.316 330.103 138.316 319.051 169.894C336.419 149.368 337.998 138.316 333.261 119.368C345.893 147.789 331.682 177.789 331.682 177.789" stroke="#E07443" stroke-width="3.15789" stroke-linecap="round" stroke-linejoin="round"/>
<path d="M306.419 278.843C309.398 271.003 314.314 270.948 319.051 261.475C319.051 289.896 337.998 288.316 331.682 326.211C355.366 299.369 331.682 278.843 331.682 253.58C334.84 275.685 341.824 277.504 345.893 296.211C349.051 310.73 336.419 330.948 353.787 360.948C358.524 343.58 361.682 346.737 361.682 321.474C361.682 387.79 369.992 394.106 367.998 413.053C364.84 443.053 347.472 439.895 345.893 477.79" stroke="#E07443" stroke-width="3.15789" stroke-linecap="round" stroke-linejoin="round"/>
<path d="M281.156 449.369C287.472 392.527 342.735 424.106 320.63 312C289.051 252 308.834 236.211 303.262 226.737C271.683 173.053 306.423 179.909 306.419 152.527C306.417 130.192 300.104 117.79 306.419 97.2634" stroke="#E07443" stroke-width="3.15789" stroke-linecap="round" stroke-linejoin="round"/>
<path d="M295.367 293.053C334.841 379.895 271.683 394.106 271.683 394.106" stroke="#E07443" stroke-width="3.15789" stroke-linecap="round" stroke-linejoin="round"/>
<path d="M244.841 386.211C263.788 360.948 289.051 364.106 289.051 326.211C303.262 375.159 252.735 378.316 236.946 422.527" stroke="#E07443" stroke-width="3.15789" stroke-linecap="round" stroke-linejoin="round"/>
<path d="M266.933 204.632C276.417 182.527 274.122 171.474 255.88 157.264C296.933 179.369 265.354 193.579 292.196 234.632" stroke="#E07443" stroke-width="3.15789" stroke-linecap="round" stroke-linejoin="round"/>
<path d="M270.103 270.948C270.103 270.948 260.629 240.948 270.103 222M277.998 277.264C287.471 296.211 281.155 315.158 281.155 315.158M273.261 296.211C274.84 327.79 257.471 338.843 257.471 338.843" stroke="#E07443" stroke-width="3.15789" stroke-linecap="round" stroke-linejoin="round"/>
<path d="M241.682 209.368C202.209 256.737 306.004 305.684 219.577 346.737C282.735 316.737 222.735 255.158 222.735 255.158" stroke="#E07443" stroke-width="3.15789" stroke-linecap="round" stroke-linejoin="round"/>
<path d="M194.314 342C252.736 337.264 202.601 277.08 211.683 236.211C221.157 193.579 271.401 209.369 238.525 125.685C249.07 152.527 259.051 171.474 257.472 187.264C253.962 222.371 222.736 215.424 265.367 277.263" stroke="#E07443" stroke-width="3.15789" stroke-linecap="round" stroke-linejoin="round"/>
<path d="M162.735 334.105C176.946 300.948 211.683 319.895 205.367 278.842C212.897 327.79 169.051 348.316 211.683 395.684" stroke="#E07443" stroke-width="3.15789" stroke-linecap="round" stroke-linejoin="round"/>
<path d="M132.735 242.526C132.735 283.579 156.42 283.579 145.367 315.157C162.735 294.631 164.314 283.579 159.577 264.631C172.209 293.052 157.999 323.052 157.999 323.052" stroke="#E07443" stroke-width="3.15789" stroke-linecap="round" stroke-linejoin="round"/>
<path d="M363.57 427.264C360.591 419.424 355.675 419.369 350.938 409.895C350.938 438.316 331.991 436.737 338.307 474.631C314.622 447.789 338.307 427.264 338.307 402C335.149 424.105 328.165 425.924 324.096 444.631C320.938 459.151 333.57 479.369 316.201 509.368C311.465 492 308.307 495.158 308.307 469.895C308.307 536.21 299.996 542.526 301.991 561.474C305.149 591.474 322.517 588.316 324.096 626.21" stroke="#E07443" stroke-width="3.15789" stroke-linecap="round" stroke-linejoin="round"/>
<path d="M364.841 378.315C385.368 353.052 382.209 334.104 374.313 326.209" stroke="#E07443" stroke-width="3.15789" stroke-linecap="round" stroke-linejoin="round"/>
<path d="M374.623 441.472C335.149 528.314 398.307 542.525 398.307 542.525" stroke="#E07443" stroke-width="3.15789" stroke-linecap="round" stroke-linejoin="round"/>
<path d="M425.148 534.63C406.201 509.367 380.938 512.525 380.938 474.63C366.727 523.578 417.253 526.736 433.043 570.946" stroke="#E07443" stroke-width="3.15789" stroke-linecap="round" stroke-linejoin="round"/>
<path d="M403.056 353.052C393.572 330.947 395.867 319.894 414.108 305.684C373.055 327.789 404.634 341.999 377.793 383.052" stroke="#E07443" stroke-width="3.15789" stroke-linecap="round" stroke-linejoin="round"/>
<path d="M399.886 419.369C399.886 419.369 409.36 389.369 399.886 370.421M391.991 425.685C382.518 444.632 388.833 463.579 388.833 463.579M396.728 444.632C395.149 476.211 412.518 487.263 412.518 487.263" stroke="#E07443" stroke-width="3.15789" stroke-linecap="round" stroke-linejoin="round"/>
<path d="M428.306 357.789C467.78 405.157 363.985 454.104 450.412 495.157C387.254 465.157 447.254 403.578 447.254 403.578" stroke="#E07443" stroke-width="3.15789" stroke-linecap="round" stroke-linejoin="round"/>
<path d="M475.674 490.42C417.253 485.683 467.388 425.5 458.306 384.631C448.832 341.999 398.588 357.789 431.464 274.104C420.919 300.947 410.937 319.894 412.516 335.683C416.027 370.79 447.253 363.844 404.622 425.683" stroke="#E07443" stroke-width="3.15789" stroke-linecap="round" stroke-linejoin="round"/>
<path d="M507.253 482.526C493.043 449.368 458.306 468.315 464.622 427.263C457.091 476.21 500.938 496.736 458.306 544.105" stroke="#E07443" stroke-width="3.15789" stroke-linecap="round" stroke-linejoin="round"/>
<path d="M554.622 482.526C554.622 482.526 534.096 463.578 532.517 447.789C529.684 419.466 538.833 430.42 537.254 390.946C537.254 431.999 513.569 431.999 524.622 463.578C507.254 443.052 505.675 431.999 510.412 413.051C497.78 441.473 511.99 471.473 511.99 471.473" stroke="#E07443" stroke-width="3.15789" stroke-linecap="round" stroke-linejoin="round"/>
<path d="M284.317 687.79C326.947 640.422 284.317 624.632 289.054 575.685C289.054 621.474 326.947 594.632 339.581 648.316C344.316 608.843 323.79 600.948 336.423 558.316C325.661 594.632 353.79 599.368 353.79 623.053" stroke="#E07443" stroke-width="3.15789" stroke-linecap="round" stroke-linejoin="round"/>
<path d="M342.738 597.789C349.054 570.947 364.844 574.105 361.686 539.368C368.001 580.421 355.467 577.87 356.949 593.052C358.431 608.234 377.475 610.421 366.422 637.263" stroke="#E07443" stroke-width="3.15789" stroke-linecap="round" stroke-linejoin="round"/>
<path d="M301.688 635.684C238.53 624.632 292.946 572.777 284.319 533.053C275.241 491.249 229.056 514.105 255.898 427.263" stroke="#E07443" stroke-width="3.15789" stroke-linecap="round" stroke-linejoin="round"/>
<path d="M232.211 569.368C243.264 548.842 257.244 537.355 248.001 510.947C236.948 479.368 241.685 479.368 255.896 425.684" stroke="#E07443" stroke-width="3.15789" stroke-linecap="round" stroke-linejoin="round"/>
<path d="M255.894 510.948C295.377 548.842 184.843 593.053 273.254 640.421C225.896 615.048 259.054 564.632 273.254 550.421" stroke="#E07443" stroke-width="3.15789" stroke-linecap="round" stroke-linejoin="round"/>
<path d="M225.895 559.894C235.369 536.21 225.895 517.263 225.895 517.263" stroke="#E07443" stroke-width="3.15789" stroke-linecap="round" stroke-linejoin="round"/>
<path d="M203.791 528.316C221.159 499.895 211.685 495.158 219.58 476.21C227.475 457.263 249.58 460.421 255.896 424.105C248.207 468.316 211.685 452.526 229.054 503.053" stroke="#E07443" stroke-width="3.15789" stroke-linecap="round" stroke-linejoin="round"/>
<path d="M192.739 537.79C188.002 504.632 221.161 496.737 200.64 471.474" stroke="#E07443" stroke-width="3.15789" stroke-linecap="round" stroke-linejoin="round"/>
<path d="M214.843 611.999C206.948 599.368 218.001 570.947 218.001 570.947" stroke="#E07443" stroke-width="3.15789" stroke-linecap="round" stroke-linejoin="round"/>
<path d="M236.95 637.263C236.95 637.263 219.582 618.315 222.74 591.473" stroke="#E07443" stroke-width="3.15789" stroke-linecap="round" stroke-linejoin="round"/>
<path d="M259.051 717.789C240.105 664.105 195.893 683.053 206.945 621.474C213.263 668.842 232.21 651.474 262.209 695.684" stroke="#E07443" stroke-width="3.15789" stroke-linecap="round" stroke-linejoin="round"/>
<path d="M200.629 586.738C173.793 667.264 195.897 668.843 222.734 689.369" stroke="#E07443" stroke-width="3.15789" stroke-linecap="round" stroke-linejoin="round"/>
<path d="M156.417 730.421C109.054 690.947 139.052 667.263 131.154 613.579C136.808 629.997 134.482 641.55 143.786 656.211C154.843 634.105 149.139 618.157 151.685 597.789C154.843 572.526 164.312 569.368 164.312 547.263C164.312 577.263 139.058 593.052 165.896 623.052C165.896 574.105 176.944 588.316 176.944 556.737C184.314 561.479 191.154 574.105 191.154 574.105" stroke="#E07443" stroke-width="3.15789" stroke-linecap="round" stroke-linejoin="round"/>
<path d="M132.735 427.264C135.714 419.424 140.63 419.369 145.367 409.895C145.367 438.316 164.314 436.737 157.999 474.631C181.683 447.789 157.999 427.264 157.999 402C161.156 424.105 168.14 425.924 172.209 444.631C175.367 459.151 162.735 479.369 180.104 509.368C184.841 492 187.999 495.158 187.999 469.895C187.999 536.21 196.309 542.526 194.314 561.474C191.156 591.474 173.788 588.316 172.209 626.21" stroke="#E07443" stroke-width="3.15789" stroke-linecap="round" stroke-linejoin="round"/>
<path d="M107.473 597.789C113.788 540.947 169.052 572.526 146.946 460.421C115.367 400.421 135.151 384.631 129.578 375.158C97.999 321.473 126.42 330.947 132.736 300.947C138.266 274.681 126.42 263.052 132.736 242.526" stroke="#E07443" stroke-width="3.15789" stroke-linecap="round" stroke-linejoin="round"/>
<path d="M121.682 441.472C161.156 528.315 97.998 542.525 97.998 542.525" stroke="#E07443" stroke-width="3.15789" stroke-linecap="round" stroke-linejoin="round"/>
<path d="M71.1569 534.631C90.1043 509.368 115.367 512.526 115.367 474.631C129.578 523.578 79.0517 526.736 63.2622 570.947" stroke="#E07443" stroke-width="3.15789" stroke-linecap="round" stroke-linejoin="round"/>
<path d="M93.2494 353.053C102.733 330.947 100.438 319.895 82.1968 305.684C123.25 327.789 91.6709 342 118.513 383.053" stroke="#E07443" stroke-width="3.15789" stroke-linecap="round" stroke-linejoin="round"/>
<path d="M96.4192 419.369C96.4192 419.369 86.9455 389.369 96.4192 370.421M104.314 425.685C113.788 444.632 107.472 463.579 107.472 463.579M99.5771 444.632C101.156 476.211 83.7876 487.263 83.7876 487.263" stroke="#E07443" stroke-width="3.15789" stroke-linecap="round" stroke-linejoin="round"/>
<path d="M67.9988 357.789C28.5257 405.157 132.32 454.105 45.8936 495.157C109.051 465.157 49.0514 403.579 49.0514 403.579" stroke="#E07443" stroke-width="3.15789" stroke-linecap="round" stroke-linejoin="round"/>
<path d="M20.6309 490.421C79.0519 485.684 28.9172 425.501 37.9993 384.632C47.473 342 97.7173 357.789 64.8414 274.105C75.3865 300.947 85.3677 319.895 83.7888 335.684C80.278 370.791 49.0519 363.845 91.6835 425.684" stroke="#E07443" stroke-width="3.15789" stroke-linecap="round" stroke-linejoin="round"/>
<path d="M-10.9482 482.527C3.26229 449.369 37.9991 468.316 31.6833 427.263C39.2137 476.211 -4.63245 496.737 37.9991 544.106" stroke="#E07443" stroke-width="3.15789" stroke-linecap="round" stroke-linejoin="round"/>
<path d="M-40.9478 572.527C-37.969 564.687 -33.053 564.632 -28.3162 555.158C-28.3162 583.579 -9.36881 582 -15.6846 619.895C7.99961 593.053 -15.6846 572.527 -15.6846 547.264C-12.5267 569.368 -5.54286 571.187 -1.47407 589.895C1.68382 604.414 -10.9478 624.632 6.42067 654.632C11.1575 637.263 14.3154 640.421 14.3154 615.158C14.3154 681.474 22.6257 687.789 20.6312 706.737C17.4733 736.737 0.104876 733.579 -1.47407 771.474" stroke="#E07443" stroke-width="3.15789" stroke-linecap="round" stroke-linejoin="round"/>
<path d="M17.4742 671.999C38.0004 646.736 34.8414 627.788 26.9455 619.894" stroke="#E07443" stroke-width="3.15789" stroke-linecap="round" stroke-linejoin="round"/>
<path d="M55.6886 646.736C46.2045 624.631 48.5 613.578 66.7412 599.368C25.6881 621.473 57.2671 635.684 30.4254 676.736" stroke="#E07443" stroke-width="3.15789" stroke-linecap="round" stroke-linejoin="round"/>
<path d="M128.307 784.105C69.8861 779.368 120.021 719.185 110.939 678.315C101.465 635.684 51.2207 651.473 84.0966 567.789C73.5515 594.631 63.5703 613.578 65.1492 629.368C68.6599 664.475 99.8861 657.528 57.2545 719.368" stroke="#E07443" stroke-width="3.15789" stroke-linecap="round" stroke-linejoin="round"/>
<path d="M510.104 630.947C524.315 597.79 559.052 616.737 552.736 575.684C560.266 624.632 516.42 645.158 559.052 692.526" stroke="#E07443" stroke-width="3.15789" stroke-linecap="round" stroke-linejoin="round"/>
<path d="M480.103 539.368C480.103 580.421 503.787 580.421 492.735 611.999C510.103 591.474 511.682 580.421 506.945 561.473C519.577 589.895 505.366 619.895 505.366 619.895" stroke="#E07443" stroke-width="3.15789" stroke-linecap="round" stroke-linejoin="round"/>
<path d="M454.841 891.473C461.157 834.631 516.42 866.21 494.315 754.105C462.736 694.105 482.519 678.315 476.946 668.842C445.367 615.157 480.107 622.013 480.104 594.631C480.101 572.296 473.788 559.894 480.104 539.368" stroke="#E07443" stroke-width="3.15789" stroke-linecap="round" stroke-linejoin="round"/>
<path d="M440.618 646.736C450.102 624.631 447.806 613.578 429.565 599.368C470.618 621.473 439.039 635.684 465.881 676.736" stroke="#E07443" stroke-width="3.15789" stroke-linecap="round" stroke-linejoin="round"/>
<path d="M367.999 784.104C426.42 779.368 376.285 719.184 385.367 678.315C394.841 635.683 445.085 651.473 412.21 567.789C422.755 594.631 432.736 613.578 431.157 629.368C427.646 664.475 396.42 657.528 439.052 719.368" stroke="#E07443" stroke-width="3.15789" stroke-linecap="round" stroke-linejoin="round"/>
</svg>
