<svg width="64" height="64" viewBox="0 0 64 64" fill="none" xmlns="http://www.w3.org/2000/svg">
<rect width="64" height="64" rx="32" fill="url(#paint0_linear_2885_2006)"/>
<path d="M26.6739 32.0821C26.6739 29.1341 29.0624 26.7436 32.0096 26.7436C34.9568 26.7436 37.3466 29.1341 37.3466 32.0821C37.3466 35.0301 34.9568 37.4206 32.0096 37.4206C29.0624 37.4206 26.6739 35.0301 26.6739 32.0821ZM23.7889 32.0821C23.7889 36.6237 27.4693 40.3052 32.0096 40.3052C36.5499 40.3052 40.2303 36.6237 40.2303 32.0821C40.2303 27.5405 36.5499 23.859 32.0096 23.859C27.4693 23.859 23.7889 27.5405 23.7889 32.0821ZM38.6346 23.5329C38.6345 23.913 38.747 24.2846 38.958 24.6007C39.1689 24.9168 39.4689 25.1632 39.8199 25.3088C40.1709 25.4544 40.5571 25.4926 40.9298 25.4186C41.3025 25.3446 41.6449 25.1617 41.9137 24.8931C42.1825 24.6244 42.3656 24.2821 42.4399 23.9094C42.5141 23.5366 42.4763 23.1502 42.331 22.799C42.1857 22.4478 41.9396 22.1476 41.6238 21.9363C41.3079 21.725 40.9365 21.6121 40.5565 21.612H40.5558C40.0465 21.6122 39.5581 21.8147 39.1979 22.1748C38.8376 22.535 38.6351 23.0235 38.6346 23.5329V23.5329ZM25.5417 45.1173C23.9808 45.0462 23.1325 44.7861 22.5687 44.5664C21.8212 44.2753 21.2879 43.9286 20.7272 43.3685C20.1665 42.8084 19.8194 42.2755 19.5297 41.5278C19.3099 40.9641 19.0499 40.1152 18.9789 38.5539C18.9013 36.8659 18.8858 36.3588 18.8858 32.0822C18.8858 27.8057 18.9026 27.3 18.9789 25.6106C19.05 24.0492 19.3119 23.202 19.5297 22.6366C19.8207 21.889 20.1672 21.3555 20.7272 20.7946C21.2871 20.2337 21.8199 19.8866 22.5687 19.5968C23.1322 19.3769 23.9808 19.1169 25.5417 19.0459C27.2293 18.9682 27.7362 18.9527 32.0096 18.9527C36.283 18.9527 36.7905 18.9695 38.4794 19.0459C40.0403 19.117 40.8872 19.379 41.4524 19.5968C42.1999 19.8866 42.7332 20.2345 43.2939 20.7946C43.8547 21.3547 44.2005 21.889 44.4915 22.6366C44.7112 23.2003 44.9712 24.0492 45.0422 25.6106C45.1198 27.3 45.1353 27.8057 45.1353 32.0822C45.1353 36.3588 45.1198 36.8645 45.0422 38.5539C44.9711 40.1152 44.7098 40.9638 44.4915 41.5278C44.2005 42.2755 43.8539 42.8089 43.2939 43.3685C42.734 43.9281 42.1999 44.2753 41.4524 44.5664C40.8889 44.7862 40.0403 45.0463 38.4794 45.1173C36.7919 45.1949 36.2849 45.2104 32.0096 45.2104C27.7343 45.2104 27.2287 45.1949 25.5417 45.1173V45.1173ZM25.4092 16.1649C23.7048 16.2425 22.5402 16.5128 21.5232 16.9087C20.4699 17.3175 19.5782 17.8659 18.6872 18.7558C17.7961 19.6457 17.2493 20.539 16.8406 21.5926C16.4448 22.6106 16.1746 23.7749 16.097 25.4798C16.0181 27.1873 16 27.7331 16 32.0821C16 36.431 16.0181 36.9769 16.097 38.6844C16.1746 40.3894 16.4448 41.5535 16.8406 42.5715C17.2493 43.6245 17.7963 44.5189 18.6872 45.4084C19.5781 46.2979 20.4699 46.8455 21.5232 47.2555C22.5422 47.6514 23.7048 47.9217 25.4092 47.9993C27.1171 48.077 27.6619 48.0963 32.0096 48.0963C36.3573 48.0963 36.903 48.0783 38.61 47.9993C40.3145 47.9217 41.4783 47.6514 42.496 47.2555C43.5487 46.8455 44.441 46.2982 45.332 45.4084C46.2231 44.5185 46.7688 43.6245 47.1786 42.5715C47.5744 41.5535 47.8459 40.3892 47.9222 38.6844C47.9999 36.9757 48.0179 36.431 48.0179 32.0821C48.0179 27.7331 47.9999 27.1873 47.9222 25.4798C47.8446 23.7748 47.5744 22.61 47.1786 21.5926C46.7688 20.5397 46.2216 19.6471 45.332 18.7558C44.4424 17.8645 43.5487 17.3175 42.4973 16.9087C41.4783 16.5128 40.3144 16.2412 38.6113 16.1649C36.9043 16.0872 36.3586 16.0679 32.0109 16.0679C27.6632 16.0679 27.1171 16.0859 25.4092 16.1649Z" fill="white"/>
<defs>
<linearGradient id="paint0_linear_2885_2006" x1="62.7699" y1="64" x2="-1.23008" y2="-1.7227e-06" gradientUnits="userSpaceOnUse">
<stop stop-color="#FBE18A"/>
<stop offset="0.21" stop-color="#FCBB45"/>
<stop offset="0.38" stop-color="#F75274"/>
<stop offset="0.52" stop-color="#D53692"/>
<stop offset="0.74" stop-color="#8F39CE"/>
<stop offset="1" stop-color="#5B4FE9"/>
</linearGradient>
</defs>
</svg>
