<svg width="32" height="33" viewBox="0 0 32 33" fill="none" xmlns="http://www.w3.org/2000/svg">
<path d="M10.6786 16.0142C10.6786 13.0688 13.065 10.6804 16.0095 10.6804C18.9541 10.6804 21.3418 13.0688 21.3418 16.0142C21.3418 18.9596 18.9541 21.3479 16.0095 21.3479C13.065 21.3479 10.6786 18.9596 10.6786 16.0142ZM7.79611 16.0142C7.79611 20.5518 11.4733 24.23 16.0095 24.23C20.5458 24.23 24.223 20.5518 24.223 16.0142C24.223 11.4766 20.5458 7.79835 16.0095 7.79835C11.4733 7.79835 7.79611 11.4766 7.79611 16.0142ZM22.6287 7.47259C22.6285 7.85233 22.741 8.22359 22.9517 8.53942C23.1625 8.85524 23.4622 9.10145 23.8129 9.24691C24.1636 9.39238 24.5495 9.43055 24.9218 9.35662C25.2942 9.28268 25.6363 9.09996 25.9048 8.83155C26.1734 8.56314 26.3563 8.2211 26.4305 7.84869C26.5048 7.47627 26.4669 7.09021 26.3218 6.73932C26.1766 6.38842 25.9307 6.08846 25.6152 5.87737C25.2996 5.66627 24.9285 5.55351 24.5489 5.55336H24.5481C24.0393 5.5536 23.5513 5.75585 23.1914 6.11571C22.8315 6.47556 22.6291 6.96358 22.6287 7.47259V7.47259ZM9.54741 29.0378C7.98792 28.9667 7.14029 28.7069 6.577 28.4874C5.83021 28.1966 5.29737 27.8502 4.73715 27.2906C4.17693 26.731 3.83015 26.1985 3.54069 25.4515C3.32111 24.8883 3.06134 24.0401 2.99045 22.4802C2.91291 20.7937 2.89742 20.2871 2.89742 16.0143C2.89742 11.7415 2.91419 11.2363 2.99045 9.54837C3.06147 7.98843 3.32316 7.14197 3.54069 6.5771C3.83143 5.8301 4.17769 5.2971 4.73715 4.73672C5.2966 4.17634 5.82893 3.82946 6.577 3.53992C7.14004 3.32027 7.98792 3.06043 9.54741 2.98952C11.2334 2.91195 11.7399 2.89646 16.0095 2.89646C20.2792 2.89646 20.7861 2.91323 22.4736 2.98952C24.0331 3.06056 24.8793 3.32232 25.444 3.53992C26.1908 3.82946 26.7236 4.1771 27.2839 4.73672C27.8441 5.29634 28.1896 5.8301 28.4803 6.5771C28.6999 7.1403 28.9597 7.98843 29.0306 9.54837C29.1081 11.2363 29.1236 11.7415 29.1236 16.0143C29.1236 20.2871 29.1081 20.7923 29.0306 22.4802C28.9595 24.0401 28.6985 24.888 28.4803 25.4515C28.1896 26.1985 27.8433 26.7315 27.2839 27.2906C26.7244 27.8497 26.1908 28.1966 25.444 28.4874C24.881 28.707 24.0331 28.9669 22.4736 29.0378C20.7876 29.1153 20.2811 29.1308 16.0095 29.1308C11.738 29.1308 11.2329 29.1153 9.54741 29.0378V29.0378ZM9.41497 0.111056C7.71216 0.188624 6.54859 0.458704 5.53244 0.854224C4.48007 1.26267 3.58919 1.81064 2.69895 2.69973C1.80871 3.58882 1.26231 4.48136 0.853982 5.53403C0.458576 6.55112 0.188574 7.71438 0.111028 9.41768C0.032203 11.1237 0.0141602 11.6691 0.0141602 16.0142C0.0141602 20.3592 0.032203 20.9047 0.111028 22.6106C0.188574 24.3141 0.458576 25.4772 0.853982 26.4943C1.26231 27.5463 1.80884 28.4399 2.69895 29.3286C3.58906 30.2173 4.48007 30.7645 5.53244 31.1741C6.55051 31.5696 7.71216 31.8397 9.41497 31.9173C11.1214 31.9948 11.6657 32.0142 16.0095 32.0142C20.3534 32.0142 20.8986 31.9961 22.6041 31.9173C24.307 31.8397 25.4699 31.5696 26.4866 31.1741C27.5384 30.7645 28.4299 30.2177 29.3201 29.3286C30.2104 28.4395 30.7556 27.5463 31.1651 26.4943C31.5605 25.4772 31.8318 24.3139 31.9081 22.6106C31.9856 20.9034 32.0036 20.3592 32.0036 16.0142C32.0036 11.6691 31.9856 11.1237 31.9081 9.41768C31.8305 7.71426 31.5605 6.55048 31.1651 5.53403C30.7556 4.482 30.209 3.59022 29.3201 2.69973C28.4313 1.80923 27.5384 1.26267 26.4879 0.854224C25.4699 0.458704 24.3069 0.187344 22.6054 0.111056C20.8999 0.0334882 20.3547 0.0141602 16.0108 0.0141602C11.667 0.0141602 11.1214 0.0322082 9.41497 0.111056Z" fill="white"/>
</svg>
