<svg width="64" height="64" viewBox="0 0 64 64" fill="none" xmlns="http://www.w3.org/2000/svg">
<rect width="64" height="64" rx="32" fill="url(#paint0_radial_2885_2015)"/>
<path d="M32.0863 16.0767C23.0689 16.0767 16.0767 22.6846 16.0767 31.606C16.0767 36.2728 17.9898 40.3072 21.1037 43.0929C21.3638 43.325 21.5239 43.6532 21.5319 44.0054L21.62 46.8551C21.6264 47.0648 21.6842 47.2697 21.7884 47.4518C21.8925 47.6339 22.0398 47.7876 22.2172 47.8995C22.3947 48.0113 22.5969 48.0779 22.8061 48.0933C23.0153 48.1087 23.2251 48.0725 23.4171 47.9878L26.595 46.587C26.8631 46.4669 27.1673 46.4469 27.4515 46.5229C28.9124 46.9232 30.4653 47.1393 32.0863 47.1393C41.1037 47.1393 48.0959 40.5313 48.0959 31.61C48.0959 22.6886 41.1037 16.0767 32.0863 16.0767Z" fill="white"/>
<path d="M22.4725 36.1487L27.1753 28.6882C27.3522 28.4073 27.5855 28.1662 27.8603 27.98C28.1351 27.7938 28.4455 27.6666 28.772 27.6064C29.0984 27.5462 29.4338 27.5544 29.7569 27.6304C30.0801 27.7063 30.384 27.8485 30.6494 28.0478L34.3916 30.8535C34.5587 30.9786 34.762 31.0459 34.9707 31.0451C35.1794 31.0444 35.3821 30.9757 35.5483 30.8495L40.5994 27.0152C41.2718 26.5029 42.1523 27.3114 41.704 28.0278L36.9972 35.4843C36.8203 35.7652 36.5871 36.0063 36.3123 36.1925C36.0374 36.3787 35.727 36.5059 35.4006 36.5661C35.0741 36.6263 34.7387 36.6181 34.4156 36.5422C34.0924 36.4662 33.7886 36.324 33.5231 36.1247L29.7809 33.319C29.6138 33.1939 29.4106 33.1267 29.2019 33.1274C28.9932 33.1281 28.7904 33.1968 28.6242 33.323L23.5732 37.1573C22.9008 37.6696 22.0202 36.8651 22.4725 36.1487Z" fill="url(#paint1_radial_2885_2015)"/>
<defs>
<radialGradient id="paint0_radial_2885_2015" cx="0" cy="0" r="1" gradientUnits="userSpaceOnUse" gradientTransform="translate(10.72 63.9982) scale(70.4 70.3981)">
<stop stop-color="#0099FF"/>
<stop offset="0.6" stop-color="#A033FF"/>
<stop offset="0.9" stop-color="#FF5280"/>
<stop offset="1" stop-color="#FF7061"/>
</radialGradient>
<radialGradient id="paint1_radial_2885_2015" cx="0" cy="0" r="1" gradientUnits="userSpaceOnUse" gradientTransform="translate(21.4399 48.0959) scale(35.2211)">
<stop stop-color="#0099FF"/>
<stop offset="0.6" stop-color="#A033FF"/>
<stop offset="0.9" stop-color="#FF5280"/>
<stop offset="1" stop-color="#FF7061"/>
</radialGradient>
</defs>
</svg>
