<svg width="64" height="64" viewBox="0 0 64 64" fill="none" xmlns="http://www.w3.org/2000/svg">
<rect x="0.000732422" y="0.000488281" width="63.9987" height="63.9987" rx="31.9994" fill="#FFF853"/>
<path d="M26.6231 18.5186L31.3503 17.4751H33.1685L38.2593 19.9098L40.8047 25.1271V28.9531L44.0773 28.6053V29.6488V31.3879L41.8956 32.0835L41.1683 33.127L42.9864 36.6052L47.7136 39.0399L46.6227 40.4312L43.3501 41.4746L42.6228 42.8659L41.8956 43.9094H37.8956L36.0775 44.605L32.0776 46.6919L29.5322 45.9963L26.6231 44.605L24.4414 43.9094H21.5323L20.4414 43.2137L19.3505 41.4746L17.5324 41.1268L16.0779 40.0833V39.0399L17.896 37.9964L21.1687 35.5617L21.8959 33.127L18.9869 31.3879L19.3505 29.6488L20.4414 28.6053L22.6232 28.9531L23.7141 22.6924L26.6231 18.5186Z" fill="white"/>
<path d="M32.0214 18.4784C36.4926 18.4798 40.2171 22.0436 40.2225 26.3345C40.2238 27.3396 40.2562 28.2651 40.3154 29.1176C40.352 29.6436 40.8089 30.0335 41.333 30.0335C41.4102 30.0335 41.4888 30.025 41.5677 30.0073L42.9684 29.6929C43.028 29.6795 43.0878 29.6731 43.1469 29.6731C43.5027 29.6731 43.8303 29.9058 43.9101 30.2505C44.023 30.7376 43.738 31.2296 43.245 31.3951L41.1189 32.2168C40.5821 32.4243 40.2938 32.9836 40.445 33.5186C42.1507 39.556 46.9152 38.9281 46.9152 39.7147C46.9152 40.7024 43.324 40.8419 42.9996 41.1526C42.6751 41.4633 42.9855 42.971 42.2606 43.2628C42.1239 43.3179 41.9298 43.337 41.693 43.337C41.147 43.337 40.3747 43.235 39.5608 43.235C38.8548 43.235 38.1175 43.3117 37.4692 43.5984C35.7495 44.359 34.0915 45.7796 32.0362 45.7796C29.9809 45.7796 28.3229 44.359 26.6032 43.5984C25.9548 43.3117 25.2176 43.235 24.5116 43.235C23.6977 43.235 22.9254 43.337 22.3794 43.337C22.1428 43.337 21.9484 43.3178 21.8119 43.2628C21.0869 42.971 21.3973 41.4633 21.0728 41.1526C20.7484 40.8419 17.1572 40.7024 17.1572 39.7146C17.1572 38.928 21.9217 39.5559 23.6275 33.5185C23.7786 32.9836 23.4903 32.4243 22.9535 32.2168L20.8273 31.3951C20.3343 31.2296 20.0492 30.7375 20.1622 30.2504C20.2421 29.9057 20.5696 29.673 20.9254 29.6731C20.9844 29.6731 21.0443 29.6795 21.1039 29.6929L22.5046 30.0072C22.5836 30.0249 22.6622 30.0334 22.7394 30.0334C23.2633 30.0334 23.7204 29.6435 23.7569 29.1176C23.8162 28.265 23.8486 27.3395 23.8499 26.3345C23.8553 22.0436 27.5501 18.4799 32.0214 18.4784ZM32.022 16.7759H32.0207C30.6861 16.7763 29.386 17.033 28.1567 17.539C26.9766 18.0246 25.9146 18.7171 25.0001 19.5972C24.0868 20.4761 23.3681 21.4964 22.8639 22.6299C22.3397 23.8085 22.0731 25.0542 22.0714 26.3324C22.0706 26.96 22.057 27.569 22.0309 28.1522L21.5097 28.0352C21.3185 27.9923 21.1219 27.9705 20.9255 27.9705C20.3584 27.9704 19.7989 28.1539 19.3502 28.4872C18.8821 28.8349 18.5538 29.3301 18.426 29.8815C18.1217 31.194 18.8787 32.5191 20.1906 32.985L21.751 33.5881C20.7177 36.6244 18.8124 37.2063 17.5294 37.5982C17.189 37.7022 16.8949 37.792 16.6149 37.925C15.4993 38.4551 15.3789 39.3532 15.3789 39.7146C15.3789 40.407 15.7212 41.0389 16.3428 41.4937C16.6523 41.7202 17.0357 41.9071 17.5149 42.065C18.168 42.2803 18.925 42.4169 19.5403 42.5264C19.5701 42.7447 19.6137 42.9791 19.6872 43.2154C19.9923 44.1968 20.6361 44.6363 21.1225 44.8321C21.584 45.0179 22.0609 45.0394 22.3794 45.0394C22.691 45.0394 23.0203 45.016 23.369 44.9913C23.7431 44.9648 24.1299 44.9374 24.5116 44.9374C25.103 44.9374 25.5432 45.0049 25.8574 45.1439C26.2888 45.3347 26.7464 45.592 27.2308 45.8643C28.5793 46.6225 30.1078 47.482 32.0362 47.482C33.9646 47.482 35.493 46.6225 36.8415 45.8643C37.326 45.5919 37.7835 45.3347 38.215 45.1439C38.5292 45.0049 38.9694 44.9374 39.5608 44.9374C39.9425 44.9374 40.3293 44.9648 40.7033 44.9913C41.052 45.016 41.3813 45.0394 41.6929 45.0394C42.0114 45.0394 42.4883 45.0179 42.9498 44.8321C43.4362 44.6363 44.0801 44.1968 44.3852 43.2154C44.4586 42.9791 44.5023 42.7447 44.532 42.5264C45.1473 42.4168 45.9044 42.2803 46.5574 42.065C47.0367 41.9071 47.42 41.7202 47.7295 41.4937C48.3511 41.0389 48.6934 40.407 48.6934 39.7146C48.6934 39.3532 48.573 38.4551 47.4573 37.9251C47.1773 37.7921 46.8832 37.7022 46.5428 37.5983C45.2598 37.2064 43.3544 36.6245 42.3212 33.5881L43.8815 32.9851C45.1934 32.5191 45.9505 31.194 45.6462 29.8815C45.5184 29.3301 45.1901 28.8349 44.722 28.4872C44.2733 28.154 43.714 27.9705 43.1469 27.9705C42.9505 27.9705 42.7539 27.9923 42.5626 28.0352L42.0414 28.1522C42.0152 27.569 42.0016 26.96 42.0008 26.3324C41.9992 25.0532 41.7305 23.8062 41.202 22.626C40.6948 21.4931 39.9721 20.473 39.0542 19.594C38.1364 18.7151 37.0714 18.0234 35.8889 17.5382C34.6573 17.0328 33.3562 16.7764 32.022 16.7759Z" fill="#050505"/>
</svg>
