<svg width="32" height="33" viewBox="0 0 32 33" fill="none" xmlns="http://www.w3.org/2000/svg">
<path fill-rule="evenodd" clip-rule="evenodd" d="M2.30806 23.4849L0.0141602 32.0142L8.62985 29.7151C11.9816 31.5188 15.8725 32.0554 19.5886 31.2263C23.3046 30.3972 26.5965 28.2581 28.8603 25.2014C31.124 22.1448 32.2077 18.3757 31.9125 14.5858C31.6173 10.7958 29.963 7.23927 27.2532 4.56874C24.5434 1.89821 20.9598 0.29283 17.16 0.0471917C13.3603 -0.198446 9.59924 0.932134 6.56706 3.23147C3.53489 5.53081 1.43497 8.84466 0.652651 12.5649C-0.129668 16.2852 0.458088 20.1624 2.30806 23.4849ZM9.57811 26.8389L9.04528 26.5234L4.23169 27.8036L5.51411 23.0432L5.17996 22.4932C3.9554 20.5024 3.30823 18.2115 3.31052 15.8754C3.30633 13.0579 4.23582 10.3182 5.95414 8.08314C7.67247 5.84811 10.0831 4.24333 12.8104 3.51887C15.5377 2.79442 18.4284 2.99099 21.0321 4.07795C23.6358 5.16491 25.8062 7.0812 27.2051 9.5282C28.604 11.9752 29.1528 14.8154 28.7659 17.6063C28.3791 20.3972 27.0784 22.982 25.0665 24.9578C23.0546 26.9336 20.4445 28.1895 17.643 28.5297C14.8414 28.87 12.0059 28.2755 9.57811 26.8389ZM20.9083 17.548C21.2996 17.637 21.6653 17.8141 21.9777 18.0656C22.0686 18.119 22.1681 18.1742 22.2721 18.2319C22.8703 18.5638 23.6183 18.9789 23.7568 19.6163C23.8246 19.9823 23.7772 20.3602 23.6213 20.6983C23.356 21.2579 22.9569 21.7438 22.4593 22.1132C21.9616 22.4827 21.3807 22.7244 20.7675 22.8171C19.6913 22.939 18.6021 22.7676 17.6156 22.3212C16.666 21.9966 15.7569 21.564 14.9063 21.0319C13.2113 19.9848 11.736 18.6192 10.5623 17.0107C10.2012 16.521 9.86657 16.0124 9.55988 15.487C9.13479 14.8011 8.81229 14.0569 8.60258 13.278C8.52 12.9538 8.47754 12.6208 8.47615 12.2863C8.45542 11.6906 8.56881 11.0979 8.80794 10.5517C9.04708 10.0056 9.40587 9.51999 9.85791 9.13064C10.1183 8.89929 10.4402 8.7481 10.7847 8.6953C11.1292 8.64251 11.4817 8.69037 11.7996 8.83311C12.4159 9.353 12.8703 10.0382 13.1091 10.8076C13.418 11.3565 13.5622 11.9824 13.5245 12.6108C13.3551 13.1806 13.0445 13.6984 12.6214 14.1165C12.5006 14.2198 12.4246 14.3658 12.4094 14.5239C12.3942 14.682 12.4411 14.8398 12.5401 14.964C13.7012 16.9555 15.5027 18.4965 17.6518 19.3368C17.7713 19.4023 17.9107 19.4219 18.0437 19.392C18.1767 19.3621 18.2943 19.2848 18.3743 19.1746C18.4932 19.0304 18.6121 18.8411 18.7374 18.6415C19.0118 18.2046 19.3169 17.7188 19.7199 17.5517C20.1106 17.4602 20.517 17.4589 20.9083 17.548Z" fill="white"/>
</svg>
