<svg width="64" height="64" viewBox="0 0 64 64" fill="none" xmlns="http://www.w3.org/2000/svg">
<rect width="64" height="64" rx="32" fill="#00D95F"/>
<path d="M16 46.8151L18.2959 38.2783C16.4443 34.9527 15.856 31.0721 16.6391 27.3486C17.4221 23.625 19.5238 20.3082 22.5587 18.0068C25.5935 15.7054 29.3579 14.5738 33.161 14.8197C36.9641 15.0655 40.5509 16.6723 43.2631 19.3453C45.9753 22.0182 47.631 25.5779 47.9265 29.3712C48.2219 33.1645 47.1373 36.9369 44.8715 39.9963C42.6058 43.0556 39.311 45.1967 35.5917 46.0265C31.8723 46.8563 27.978 46.3193 24.6233 44.5139L16 46.8151ZM25.0391 41.3194L25.5724 41.6352C28.0023 43.0731 30.8404 43.6681 33.6443 43.3275C36.4483 42.987 39.0607 41.73 41.0744 39.7524C43.0881 37.7748 44.39 35.1878 44.7771 32.3944C45.1643 29.6011 44.615 26.7583 43.2149 24.3091C41.8148 21.8599 39.6425 19.9419 37.0365 18.854C34.4305 17.7661 31.5372 17.5694 28.8075 18.2945C26.0778 19.0195 23.6651 20.6258 21.9452 22.8628C20.2254 25.0998 19.2951 27.8419 19.2993 30.6619C19.297 33.0001 19.9447 35.2931 21.1704 37.2856L21.5048 37.8361L20.2213 42.6008L25.0391 41.3194Z" fill="white"/>
<path fill-rule="evenodd" clip-rule="evenodd" d="M37.9829 32.8541C37.6702 32.6023 37.3042 32.4252 36.9126 32.336C36.521 32.2469 36.1141 32.2481 35.7231 32.3397C35.1356 32.5834 34.7559 33.5038 34.3763 33.9641C34.2962 34.0744 34.1786 34.1518 34.0455 34.1817C33.9123 34.2116 33.7728 34.1919 33.6532 34.1265C31.5022 33.2854 29.6992 31.743 28.537 29.7498C28.4379 29.6254 28.391 29.4675 28.4062 29.3093C28.4213 29.151 28.4974 29.0049 28.6184 28.9015C29.0418 28.4831 29.3527 27.9647 29.5223 27.3945C29.56 26.7655 29.4156 26.139 29.1065 25.5897C28.8675 24.8195 28.4127 24.1338 27.7958 23.6134C27.4777 23.4705 27.1249 23.4226 26.78 23.4755C26.4352 23.5283 26.113 23.6796 25.8524 23.9112C25.4 24.3009 25.0409 24.787 24.8015 25.3336C24.5622 25.8802 24.4487 26.4734 24.4694 27.0696C24.4708 27.4044 24.5133 27.7378 24.596 28.0623C24.8059 28.8419 25.1287 29.5867 25.5541 30.2732C25.8611 30.7991 26.196 31.3081 26.5575 31.7983C27.7321 33.4082 29.2087 34.775 30.9053 35.823C31.7566 36.3556 32.6665 36.7886 33.617 37.1135C34.6044 37.5603 35.6945 37.7318 36.7716 37.6098C37.3854 37.517 37.9668 37.2751 38.4649 36.9053C38.963 36.5356 39.3624 36.0492 39.628 35.4891C39.784 35.1508 39.8314 34.7725 39.7636 34.4062C39.6009 33.6572 38.5975 33.2151 37.9829 32.8541Z" fill="white"/>
</svg>
