<svg width="24" height="24" viewBox="0 0 24 24" fill="none" xmlns="http://www.w3.org/2000/svg">
<path d="M13.6667 14.4944C13.1734 14.8241 12.5933 15 12 15C11.2043 15 10.4413 14.6839 9.87868 14.1213C9.31607 13.5587 9 12.7957 9 12C9 11.4067 9.17595 10.8266 9.50559 10.3333C9.83524 9.83994 10.3038 9.45543 10.8519 9.22836C11.4001 9.0013 12.0033 8.94189 12.5853 9.05765C13.1672 9.1734 13.7018 9.45912 14.1213 9.87868C14.5409 10.2982 14.8266 10.8328 14.9424 11.4147C15.0581 11.9967 14.9987 12.5999 14.7716 13.1481C14.5446 13.6962 14.1601 14.1648 13.6667 14.4944Z" fill="#161911"/>
</svg>
